<svg version="1.1" id="Layer_1" xmlns="http://www.w3.org/2000/svg" xmlns:xlink="http://www.w3.org/1999/xlink" x="0px" y="0px"
	 width="100%" viewBox="0 0 192 192" enable-background="new 0 0 192 192" xml:space="preserve">
<path fill="#0188FF" opacity="1.000000" stroke="none" 
	d="
M1.000001,184.000000 
	C1.000000,126.312439 1.000000,68.624878 1.237789,10.807678 
	C4.317052,7.452027 7.158526,4.226014 10.000000,1.000000 
	C67.354225,1.000000 124.708458,1.000000 182.188934,1.254520 
	C184.600555,3.357555 186.937103,5.147309 189.152573,7.076126 
	C190.529846,8.275205 191.723770,9.684860 193.000000,11.000000 
	C193.000000,68.354225 193.000000,125.708458 192.748596,183.170776 
	C189.606720,186.041443 186.699020,188.786652 183.860840,191.601929 
	C183.651215,191.809860 183.941910,192.522186 184.000000,193.000000 
	C126.312439,193.000000 68.624878,193.000000 10.807678,192.762207 
	C7.452028,189.682953 4.226015,186.841476 1.000001,184.000000 
M54.988926,48.583454 
	C68.157303,65.453506 81.325676,82.323563 94.510841,99.215126 
	C81.050781,115.116730 68.014435,130.470154 55.063324,145.895157 
	C53.831924,147.361801 53.134007,149.276337 51.828075,151.633270 
	C81.001480,151.633270 108.892693,151.633270 137.006012,151.633270 
	C138.268997,142.834351 139.505386,134.280548 140.716934,125.723228 
	C140.926895,124.240204 141.269669,122.715889 141.108047,121.259819 
	C140.984100,120.143082 140.162613,119.103767 139.186539,117.053818 
	C133.349243,133.148453 128.448944,136.692139 112.774132,136.844009 
	C100.282417,136.965073 87.788658,136.885132 75.295853,136.864960 
	C74.229919,136.863235 73.164345,136.639343 71.345467,136.433380 
	C73.165955,134.231674 74.497643,132.587555 75.864586,130.973282 
	C85.979424,119.028343 96.044044,107.039948 106.270042,95.190857 
	C108.274384,92.868378 108.436226,91.333702 106.431129,88.851357 
	C99.004395,79.656906 91.825844,70.261658 84.576508,60.924419 
	C81.873375,57.442757 79.231888,53.913227 76.562302,50.405525 
	C76.739540,49.869625 76.916786,49.333721 77.094032,48.797821 
	C92.286438,49.363972 107.524109,49.451797 122.634811,50.881481 
	C125.831749,51.183960 128.974380,56.101875 131.356476,59.451832 
	C132.774017,61.445351 132.530090,64.567284 133.292252,67.104057 
	C133.631790,68.234161 134.609940,69.172401 135.298248,70.197731 
	C135.709488,69.984901 136.120728,69.772072 136.531967,69.559242 
	C135.974686,62.122395 135.206604,54.692898 134.946747,47.245674 
	C134.811584,43.372570 133.507721,42.231388 129.609909,42.259686 
	C105.291733,42.436211 80.971642,42.343025 56.652214,42.365471 
	C55.399296,42.366631 54.146603,42.609051 52.008335,42.831093 
	C53.062351,44.970043 53.813385,46.494133 54.988926,48.583454 
z"/>
<path fill="#000000" opacity="1.000000" stroke="none" 
	d="
M193.000000,10.513435 
	C191.723770,9.684860 190.529846,8.275205 189.152573,7.076126 
	C186.937103,5.147309 184.600555,3.357555 182.657593,1.254520 
	C186.252457,1.000000 189.504913,1.000000 193.000000,1.000000 
	C193.000000,4.006597 193.000000,7.016734 193.000000,10.513435 
z"/>
<path fill="#000000" opacity="1.000000" stroke="none" 
	d="
M184.491058,193.000000 
	C183.941910,192.522186 183.651215,191.809860 183.860840,191.601929 
	C186.699020,188.786652 189.606720,186.041443 192.748596,183.639435 
	C193.000000,186.917358 193.000000,189.834702 193.000000,193.000000 
	C190.330002,193.000000 187.656052,193.000000 184.491058,193.000000 
z"/>
<path fill="#000000" opacity="1.000000" stroke="none" 
	d="
M9.508951,1.000000 
	C7.158526,4.226014 4.317052,7.452027 1.237789,10.339020 
	C1.000000,7.082645 1.000000,4.165290 1.000000,1.000000 
	C3.670005,1.000000 6.343954,1.000000 9.508951,1.000000 
z"/>
<path fill="#000000" opacity="1.000000" stroke="none" 
	d="
M1.000001,184.491058 
	C4.226015,186.841476 7.452028,189.682953 10.339021,192.762207 
	C7.082646,193.000000 4.165292,193.000000 1.000000,193.000000 
	C1.000000,190.330002 1.000000,187.656052 1.000001,184.491058 
z"/>
<path fill="#F7FBFF" opacity="1.000000" stroke="none" 
	d="
M54.776672,48.300842 
	C53.813385,46.494133 53.062351,44.970043 52.008335,42.831093 
	C54.146603,42.609051 55.399296,42.366631 56.652214,42.365471 
	C80.971642,42.343025 105.291733,42.436211 129.609909,42.259686 
	C133.507721,42.231388 134.811584,43.372570 134.946747,47.245674 
	C135.206604,54.692898 135.974686,62.122395 136.531967,69.559242 
	C136.120728,69.772072 135.709488,69.984901 135.298248,70.197731 
	C134.609940,69.172401 133.631790,68.234161 133.292252,67.104057 
	C132.530090,64.567284 132.774017,61.445351 131.356476,59.451832 
	C128.974380,56.101875 125.831749,51.183960 122.634811,50.881481 
	C107.524109,49.451797 92.286438,49.363972 77.094032,48.797821 
	C76.916786,49.333721 76.739540,49.869625 76.562302,50.405525 
	C79.231888,53.913227 81.873375,57.442757 84.576508,60.924419 
	C91.825844,70.261658 99.004395,79.656906 106.431129,88.851357 
	C108.436226,91.333702 108.274384,92.868378 106.270042,95.190857 
	C96.044044,107.039948 85.979424,119.028343 75.864586,130.973282 
	C74.497643,132.587555 73.165955,134.231674 71.345467,136.433380 
	C73.164345,136.639343 74.229919,136.863235 75.295853,136.864960 
	C87.788658,136.885132 100.282417,136.965073 112.774132,136.844009 
	C128.448944,136.692139 133.349243,133.148453 139.186539,117.053818 
	C140.162613,119.103767 140.984100,120.143082 141.108047,121.259819 
	C141.269669,122.715889 140.926895,124.240204 140.716934,125.723228 
	C139.505386,134.280548 138.268997,142.834351 137.006012,151.633270 
	C108.892693,151.633270 81.001480,151.633270 51.828075,151.633270 
	C53.134007,149.276337 53.831924,147.361801 55.063324,145.895157 
	C68.014435,130.470154 81.050781,115.116730 94.510841,99.215126 
	C81.325676,82.323563 68.157303,65.453506 54.776672,48.300842 
z"/>
</svg>