<svg version="1.1" id="Layer_1" xmlns="http://www.w3.org/2000/svg" xmlns:xlink="http://www.w3.org/1999/xlink" x="0px" y="0px"
	 width="100%" viewBox="0 0 1024 1024" enable-background="new 0 0 1024 1024" xml:space="preserve">
<path fill="#FEFEFE" opacity="1.000000" stroke="none" 
	d="
M446.000000,1025.000000 
	C297.333344,1025.000000 149.166672,1025.000000 1.000000,1025.000000 
	C1.000000,683.666687 1.000000,342.333344 1.000000,1.000000 
	C342.333344,1.000000 683.666687,1.000000 1025.000000,1.000000 
	C1025.000000,342.333344 1025.000000,683.666687 1025.000000,1025.000000 
	C832.166687,1025.000000 639.333313,1025.000000 446.000000,1025.000000 
M587.043762,422.428009 
	C586.837280,422.182251 586.630737,421.936493 586.455627,421.648682 
	C586.455627,421.648682 586.477539,421.601013 586.348633,420.987793 
	C585.925659,420.290436 585.502686,419.593079 585.023071,418.988098 
	C585.023071,418.988098 585.113281,418.928070 585.010437,418.272980 
	C584.358826,417.157166 583.707214,416.041382 583.000183,414.989807 
	C583.000183,414.989807 583.075317,414.950623 582.957642,414.241516 
	C580.669067,410.079498 578.380493,405.917480 576.072693,401.347412 
	C576.072693,401.347412 575.897156,400.978516 575.892151,400.437836 
	C575.623108,400.208588 575.354004,399.979340 575.053467,399.343781 
	C575.053467,399.343781 574.847717,398.992065 574.788574,398.438904 
	C574.356506,397.867523 573.924377,397.296173 573.440369,396.655914 
	C573.440369,396.655914 573.452576,396.570557 573.246094,395.905914 
	C571.039429,391.845581 568.832764,387.785278 566.549377,383.623077 
	C566.549377,383.623077 566.507751,383.502563 566.377380,382.912537 
	C565.946350,382.238068 565.515320,381.563629 565.034058,380.967834 
	C565.034058,380.967834 565.124756,380.945709 565.049133,380.430786 
	C564.845276,380.182983 564.641418,379.935181 564.486816,379.607422 
	C564.486816,379.607422 564.498840,379.514313 564.331726,378.976044 
	C563.921753,378.604797 563.511719,378.233551 563.077148,377.948700 
	C563.077148,377.948700 563.165100,377.930817 563.060303,377.191223 
	C561.067078,373.393127 559.073914,369.595032 557.055054,365.237793 
	C556.770508,364.803711 556.485962,364.369598 556.065857,363.335846 
	C555.737793,362.851868 555.409668,362.367889 555.030640,361.975830 
	C555.030640,361.975830 555.122620,361.924896 554.992676,361.219116 
	C553.023560,357.738495 551.054443,354.257843 549.050659,350.221771 
	C548.745667,349.795319 548.440613,349.368896 548.004089,348.231079 
	C545.711304,344.101624 543.418579,339.972168 541.094482,335.934509 
	C541.094482,335.934509 541.191406,335.930634 541.092529,335.316284 
	C540.761292,334.834351 540.430115,334.352386 540.065369,333.951447 
	C540.065369,333.951447 540.152832,333.945770 540.045105,333.346863 
	C539.716492,332.869537 539.387878,332.392212 539.012024,331.982513 
	C539.012024,331.982513 539.091919,331.961914 538.963196,331.253784 
	C537.016235,327.786499 535.069275,324.319244 533.088013,320.936279 
	C533.088013,320.936279 533.178894,320.931030 533.070251,320.330750 
	C532.737610,319.854034 532.405029,319.377319 532.024353,318.975281 
	C532.024353,318.975281 532.110474,318.953644 531.985535,318.267670 
	C531.037109,316.676727 530.088684,315.085785 529.189697,313.210236 
	C529.189697,313.210236 528.995056,312.996826 528.910706,312.320099 
	C527.967834,310.808319 527.024963,309.296570 526.051697,307.357880 
	C526.051697,307.357880 525.865173,306.972626 525.863586,306.463562 
	C525.601746,306.260345 525.339966,306.057129 525.063477,305.946899 
	C525.063477,305.946899 525.146667,305.902924 525.040405,305.284698 
	C524.500610,304.433319 523.960815,303.581970 523.381287,302.677612 
	C523.381287,302.677612 523.434875,302.638641 523.248535,301.971283 
	C521.877441,299.594543 520.506409,297.217834 519.103149,294.929504 
	C519.103149,294.929504 519.197021,294.923065 519.099365,294.306152 
	C518.774536,293.819580 518.449646,293.333008 518.093933,292.933929 
	C518.093933,292.933929 518.186584,292.929413 518.080750,292.321075 
	C517.753174,291.838043 517.425598,291.354980 517.052185,290.955231 
	C517.052185,290.955231 517.145081,290.935059 517.058533,290.425446 
	C516.854370,290.182343 516.650269,289.939270 516.497498,289.524719 
	C516.497498,289.524719 516.435120,289.356934 516.156006,288.764435 
	C513.577698,285.945190 511.347626,286.541656 509.598694,289.596741 
	C508.239258,291.971405 507.115997,294.481323 505.974060,296.977631 
	C505.974060,296.977631 505.929718,296.890228 505.428375,297.238892 
	C505.232605,297.809692 505.036835,298.380493 504.929688,298.947723 
	C504.929688,298.947723 504.899384,298.864349 504.372925,299.189850 
	C504.183105,299.772217 503.993286,300.354584 503.907257,300.935242 
	C503.907257,300.935242 503.871033,300.837982 503.278015,301.191742 
	C501.483582,304.770294 499.689148,308.348846 497.980225,311.991211 
	C497.980225,311.991211 497.926819,311.898865 497.414795,312.234253 
	C497.215271,312.805511 497.015747,313.376770 496.326202,314.207123 
	C496.184723,314.731873 496.043243,315.256653 495.337341,316.149841 
	C494.801208,317.362549 494.265045,318.575256 493.784973,319.943237 
	C493.784973,319.943237 493.787476,319.778168 493.211060,320.155792 
	C490.736511,325.054077 488.261963,329.952393 485.873718,334.899414 
	C485.873718,334.899414 485.877747,334.800415 485.394928,335.025238 
	C485.284912,335.345764 485.174927,335.666290 484.875549,336.298462 
	C484.875549,336.298462 484.879944,336.663086 484.341339,337.040588 
	C484.139343,337.658905 483.937378,338.277191 483.852661,338.894684 
	C483.852661,338.894684 483.797424,338.791260 483.226044,339.137054 
	C482.457794,340.741333 481.689545,342.345612 480.997314,343.991699 
	C480.997314,343.991699 480.942932,343.924103 480.427826,344.295990 
	C480.130219,345.069305 479.832642,345.842651 479.535675,346.704773 
	C479.535675,346.704773 479.460480,346.752014 479.047791,347.055542 
	C478.855560,347.520660 478.663330,347.985809 478.462250,348.580902 
	C478.462250,348.580902 478.486389,348.708923 478.051605,348.942749 
	C477.926666,349.253387 477.841919,349.574615 477.891785,349.915436 
	C477.891785,349.915436 477.857330,349.827057 477.315186,350.134247 
	C477.120697,350.719238 476.926208,351.304230 476.873566,351.910431 
	C476.873566,351.910431 476.847107,351.769470 476.356720,351.999298 
	C476.250702,352.329895 476.144714,352.660492 475.847229,353.264587 
	C475.847229,353.264587 475.865265,353.597961 475.297272,354.002930 
	C474.502289,355.651489 473.707336,357.300018 472.993408,358.985809 
	C472.993408,358.985809 472.940186,358.914246 472.388885,359.331879 
	C471.176910,361.848907 469.964905,364.365967 468.858459,366.904266 
	C468.858459,366.904266 468.827148,366.801270 468.283875,367.112762 
	C468.101349,367.705078 467.918793,368.297394 467.850403,368.901215 
	C467.850403,368.901215 467.806854,368.795135 467.230164,369.157196 
	C465.868805,371.769257 464.507446,374.381317 462.953644,377.369385 
	C462.953644,377.369385 462.920990,377.790497 462.389984,378.144409 
	C462.198761,378.743805 462.007507,379.343201 461.914978,379.939362 
	C461.914978,379.939362 461.879852,379.847076 461.349060,380.170715 
	C461.164673,380.757538 460.980286,381.344330 460.902405,381.931580 
	C460.902405,381.931580 460.866333,381.831360 460.322845,382.137726 
	C460.127686,382.722931 459.932526,383.308105 459.855133,383.903442 
	C459.855133,383.903442 459.811737,383.793488 459.234833,384.156586 
	C458.131622,386.423004 457.028412,388.689453 456.000519,390.984711 
	C456.000519,390.984711 455.947571,390.923889 455.431824,391.337646 
	C454.912994,392.543182 454.394135,393.748688 453.960449,394.967346 
	C453.960449,394.967346 453.922424,394.890015 453.397491,395.215424 
	C453.198334,395.791992 452.999146,396.368561 452.318848,397.203522 
	C452.182648,397.720673 452.046448,398.237823 451.369659,399.106201 
	C451.168579,399.709869 450.967499,400.313507 450.880829,400.917542 
	C450.880829,400.917542 450.836914,400.811890 450.295135,401.127716 
	C450.121338,401.723938 449.947540,402.320190 449.883667,402.921112 
	C449.883667,402.921112 449.845184,402.818024 449.301941,403.124634 
	C449.110413,403.711609 448.918854,404.298615 448.846100,404.897552 
	C448.846100,404.897552 448.801239,404.786926 448.217468,405.155487 
	C446.661194,408.299591 445.104889,411.443726 443.562805,414.670715 
	C443.562805,414.670715 443.514832,414.739807 443.081207,415.058319 
	C442.885773,415.553192 442.690338,416.048065 442.514740,416.622894 
	C442.514740,416.622894 442.543396,416.700073 442.102753,416.949493 
	C442.018768,417.278259 441.934753,417.607025 441.943848,417.952271 
	C441.943848,417.952271 441.897827,417.869659 441.356506,418.171814 
	C441.159241,418.750824 440.962006,419.329865 440.875854,419.915375 
	C440.875854,419.915375 440.836151,419.811432 440.302979,420.130066 
	C440.108551,420.714020 439.914124,421.297943 439.841125,421.894318 
	C439.841125,421.894318 439.794830,421.781403 439.215851,422.155090 
	C437.429993,425.752686 435.644135,429.350281 433.944305,432.955261 
	C433.944305,432.955261 433.912079,432.875153 433.396240,433.211487 
	C433.208435,433.790039 433.020630,434.368591 432.923431,434.945648 
	C432.923431,434.945648 432.893158,434.860229 432.328949,435.222534 
	C431.821320,436.439636 431.313690,437.656738 430.904510,438.945923 
	C430.904510,438.945923 430.865448,438.830292 430.316132,439.143616 
	C430.098511,439.731903 429.880859,440.320190 429.223114,441.167694 
	C429.106781,441.654785 428.990417,442.141907 428.299286,443.039795 
	C427.162872,445.338074 426.026459,447.636322 424.979065,449.979584 
	C424.979065,449.979584 424.926636,449.894775 424.388702,450.284698 
	C423.872925,451.490936 423.357178,452.697144 422.938263,453.960114 
	C422.938263,453.960114 422.893005,453.857391 422.367218,454.186218 
	C422.182159,454.770264 421.997101,455.354309 421.910736,455.939056 
	C421.910736,455.939056 421.878265,455.845856 421.325928,456.217041 
	C420.800598,457.418610 420.275269,458.620178 419.845612,459.943573 
	C419.845612,459.943573 419.810822,459.792633 419.275970,460.120483 
	C419.103485,460.717682 418.931000,461.314911 418.875793,461.917694 
	C418.875793,461.917694 418.835480,461.807434 418.305115,462.130402 
	C418.109619,462.713776 417.914124,463.297150 417.838135,463.895264 
	C417.838135,463.895264 417.793610,463.783356 417.223297,464.168182 
	C414.769958,469.083008 412.316620,473.997803 409.945709,478.954407 
	C409.945709,478.954407 409.928375,478.863617 409.475830,479.087616 
	C409.361237,479.383606 409.246643,479.679626 408.811768,480.548157 
	C408.452972,481.324677 408.094177,482.101196 407.246429,483.182678 
	C407.082764,483.728729 406.919067,484.274780 406.840515,484.948090 
	C406.840515,484.948090 406.816437,484.796906 406.237671,485.169861 
	C404.436829,488.760223 402.635956,492.350616 400.351257,496.208588 
	C400.209625,496.730652 400.067993,497.252716 399.470795,498.044220 
	C399.348694,498.356262 399.226562,498.668274 398.911438,499.325195 
	C398.911438,499.325195 398.899780,499.720276 398.365784,500.091400 
	C398.169678,500.703644 397.973572,501.315887 397.893311,501.925690 
	C397.893311,501.925690 397.851196,501.817749 397.308716,502.124512 
	C397.109406,502.707733 396.910095,503.290955 396.831818,503.889252 
	C396.831818,503.889252 396.784851,503.776733 396.207275,504.151215 
	C394.407867,507.744934 392.608429,511.338684 390.332703,515.208679 
	C390.194092,515.730652 390.055450,516.252686 389.385712,517.130127 
	C389.184082,517.728394 388.982483,518.326660 388.892181,518.924377 
	C388.892181,518.924377 388.851288,518.820862 388.305328,519.128967 
	C388.119598,519.719849 387.933838,520.310791 387.864624,520.909851 
	C387.864624,520.909851 387.822693,520.800842 387.289001,521.115417 
	C387.094269,521.697327 386.899506,522.279236 386.820465,522.874512 
	C386.820465,522.874512 386.766815,522.771118 386.220886,523.095154 
	C385.789978,524.049500 385.359039,525.003845 385.001404,525.984802 
	C385.001404,525.984802 384.950073,525.926086 384.421570,526.362488 
	C383.452942,528.340027 382.484314,530.317627 381.428955,532.497009 
	C381.428955,532.497009 381.490936,532.707703 381.055084,532.948059 
	C380.975189,533.272827 380.895325,533.597656 380.907532,533.927551 
	C380.907532,533.927551 380.876434,533.840698 380.342072,534.160767 
	C380.153381,534.747192 379.964691,535.333557 379.907440,535.931641 
	C379.907440,535.931641 379.883362,535.801941 379.402222,536.025146 
	C379.294250,536.344421 379.186310,536.663635 378.890778,537.309875 
	C378.890778,537.309875 378.887665,537.686707 378.311584,538.090027 
	C377.181458,540.378296 376.051331,542.666565 374.997559,544.985840 
	C374.997559,544.985840 374.946899,544.920776 374.397400,545.339600 
	C373.208405,547.857117 372.019409,550.374573 370.928497,552.958801 
	C370.928497,552.958801 370.883545,552.848999 370.359985,553.179565 
	C370.173096,553.763428 369.986206,554.347351 369.903320,554.932068 
	C369.903320,554.932068 369.867920,554.834290 369.324890,555.144104 
	C369.138550,555.733154 368.952240,556.322266 368.876831,556.917358 
	C368.876831,556.917358 368.837372,556.813538 368.253204,557.178589 
	C366.132507,561.430115 364.011841,565.681580 361.979553,569.983398 
	C361.979553,569.983398 361.926544,569.896606 361.406708,570.225159 
	C361.205627,570.798035 361.004578,571.370850 360.300537,572.240479 
	C360.123199,572.791199 359.945831,573.341980 359.277069,574.189392 
	C359.098755,574.728271 358.920441,575.267212 358.828613,575.873596 
	C358.828613,575.873596 358.844147,575.765015 358.348022,575.990906 
	C358.243713,576.324524 358.139374,576.658081 357.846313,577.268311 
	C357.846313,577.268311 357.865967,577.602600 357.282776,578.023560 
	C355.785248,580.990540 354.287720,583.957520 352.218262,587.312744 
	C347.489319,596.547424 342.760345,605.782043 337.590057,615.547180 
	C336.577881,617.568909 335.565704,619.590698 334.570160,621.703674 
	C334.570160,621.703674 334.661896,621.689941 334.162872,621.908142 
	C334.053192,622.253784 333.943481,622.599426 333.326782,623.230896 
	C333.162079,623.781067 332.997375,624.331238 332.904144,624.973999 
	C332.904144,624.973999 332.891174,624.857727 332.355011,625.171509 
	C332.169586,625.757751 331.984161,626.343994 331.901672,626.933105 
	C331.901672,626.933105 331.867920,626.835754 331.263550,627.189453 
	C330.437073,628.817627 329.306641,630.366821 328.858063,632.093201 
	C328.243042,634.460205 328.145325,636.961609 327.825928,639.405457 
	C330.169952,639.113464 332.740448,639.346069 334.822449,638.447205 
	C352.912811,630.637024 370.944244,622.688049 388.936707,614.653870 
	C409.419769,605.507446 429.839386,596.219055 450.297028,587.015686 
	C462.471680,581.538635 474.657135,576.085327 486.854950,570.660034 
	C497.827637,565.779724 508.823944,560.952454 519.607910,556.746643 
	C500.694519,591.815125 481.730133,626.856262 462.888763,661.963440 
	C453.118378,680.168640 443.565765,698.490784 433.335754,717.155457 
	C432.441132,719.032471 431.546539,720.909424 430.797516,722.993713 
	C430.797516,722.993713 430.695282,722.761963 430.113403,723.229858 
	C428.045959,728.266724 428.486298,728.990295 433.863098,729.012756 
	C441.854675,729.046082 449.846985,729.064453 457.838165,728.994568 
	C473.844025,728.854675 470.274994,731.024048 477.827393,717.011902 
	C510.849915,655.743835 543.651001,594.356323 576.647949,533.074463 
	C577.365051,531.742737 579.464355,531.155212 580.941711,530.633850 
	C580.941711,530.633850 581.093506,531.019043 581.082825,531.558411 
	C581.367493,531.764954 581.652222,531.971497 582.038147,532.593018 
	C582.146667,532.890015 582.356812,533.065002 582.825684,533.746521 
	C583.236206,534.489258 583.646729,535.231995 584.147583,536.683167 
	C588.730042,545.493225 593.291931,554.314026 597.899170,563.111084 
	C608.162048,582.707397 618.447510,602.291809 628.912598,622.523193 
	C629.246582,623.055176 629.580505,623.587158 629.955994,624.039001 
	C629.955994,624.039001 629.867371,624.055969 629.957214,624.573608 
	C630.166992,624.821716 630.376709,625.069885 630.554382,625.362366 
	C630.554382,625.362366 630.534119,625.413269 630.709045,626.089294 
	C632.426514,629.117676 634.143982,632.146057 635.954529,635.046082 
	C635.954529,635.046082 635.824280,635.136536 636.227234,635.829285 
	C636.966553,636.185486 637.699219,636.837769 638.446228,636.854736 
	C657.668884,637.291382 676.892517,637.703613 696.118225,637.913330 
	C697.028015,637.923218 697.958435,636.034485 698.872681,634.317871 
	C673.364319,585.821167 647.893127,537.304810 622.330505,488.836731 
	C611.067688,467.481842 599.619263,446.224823 588.108154,424.320679 
	C587.768494,423.839935 587.428894,423.359192 587.045471,422.959747 
	C587.045471,422.959747 587.135803,422.940765 587.043762,422.428009 
z"/>
<path fill="#169DE0" opacity="1.000000" stroke="none" 
	d="
M528.995056,312.996826 
	C528.995056,312.996826 529.189697,313.210236 529.132507,313.746429 
	C530.087036,315.839630 531.098755,317.396637 532.110474,318.953644 
	C532.110474,318.953644 532.024353,318.975281 532.051575,319.257019 
	C532.445496,320.002869 532.812195,320.466949 533.178894,320.931030 
	C533.178894,320.931030 533.088013,320.936279 533.071167,321.280945 
	C535.066833,325.071045 537.079407,328.516479 539.091919,331.961914 
	C539.091919,331.961914 539.012024,331.982513 539.042419,332.265015 
	C539.432800,333.013611 539.792847,333.479675 540.152832,333.945770 
	C540.152832,333.945770 540.065369,333.951447 540.075195,334.234589 
	C540.453796,334.988708 540.822571,335.459686 541.191406,335.930634 
	C541.191406,335.930634 541.094482,335.934509 541.074951,336.278076 
	C543.415527,340.728577 545.775574,344.835510 548.135620,348.942444 
	C548.440613,349.368896 548.745667,349.795319 549.047119,350.891937 
	C551.069946,355.016357 553.096313,358.470642 555.122620,361.924896 
	C555.122620,361.924896 555.030640,361.975830 555.057617,362.253479 
	C555.456848,362.999237 555.829163,363.467377 556.201416,363.935516 
	C556.485962,364.369598 556.770508,364.803711 557.047974,365.907837 
	C559.082214,370.362213 561.123657,374.146515 563.165100,377.930817 
	C563.165100,377.930817 563.077148,377.948700 563.088989,378.243927 
	C563.566833,378.864197 564.032837,379.189270 564.498840,379.514343 
	C564.498840,379.514313 564.486816,379.607422 564.410645,379.921936 
	C564.597839,380.472900 564.861328,380.709290 565.124756,380.945709 
	C565.124756,380.945709 565.034058,380.967834 565.037781,381.295990 
	C565.530273,382.250275 566.019043,382.876404 566.507751,383.502563 
	C566.507751,383.502563 566.549377,383.623077 566.407654,384.020203 
	C568.661438,388.468445 571.057007,392.519501 573.452576,396.570557 
	C573.452576,396.570557 573.440369,396.655914 573.331543,397.004150 
	C573.764465,397.898926 574.306091,398.445496 574.847717,398.992065 
	C574.847717,398.992065 575.053467,399.343781 575.125183,399.798096 
	C575.430359,400.494415 575.663757,400.736450 575.897156,400.978516 
	C575.897156,400.978516 576.072693,401.347412 576.059570,401.945190 
	C578.389404,406.678864 580.732361,410.814758 583.075317,414.950623 
	C583.075317,414.950623 583.000183,414.989807 583.012573,415.344879 
	C583.721069,416.776001 584.417175,417.852051 585.113281,418.928070 
	C585.113281,418.928070 585.023071,418.988098 585.030823,419.307556 
	C585.518250,420.285004 585.997864,420.943024 586.477539,421.601013 
	C586.477539,421.601013 586.455627,421.648682 586.395081,421.945465 
	C586.601624,422.475067 586.868713,422.707916 587.135803,422.940765 
	C587.135803,422.940765 587.045471,422.959747 587.068237,423.247192 
	C587.479126,423.997498 587.867126,424.460419 588.255127,424.923340 
	C599.619263,446.224823 611.067688,467.481842 622.330505,488.836731 
	C647.893127,537.304810 673.364319,585.821167 698.544922,634.859131 
	C691.412720,635.915955 684.599365,636.954651 677.805786,636.837891 
	C663.806335,636.597412 649.817505,635.740051 635.824280,635.136475 
	C635.824280,635.136536 635.954529,635.046082 635.947632,634.722046 
	C634.138550,631.403137 632.336304,628.408203 630.534119,625.413269 
	C630.534119,625.413269 630.554382,625.362366 630.612061,625.062378 
	C630.402222,624.526917 630.134827,624.291443 629.867371,624.055969 
	C629.867371,624.055969 629.955994,624.039001 629.932190,623.736694 
	C629.513489,622.916565 629.118652,622.398865 628.723755,621.881104 
	C618.447510,602.291809 608.162048,582.707397 597.899170,563.111084 
	C593.291931,554.314026 588.730042,545.493225 584.356567,536.108643 
	C583.933167,534.728760 583.300903,533.923401 582.668579,533.118042 
	C582.356812,533.065002 582.146667,532.890015 581.920898,532.144653 
	C581.654297,531.378967 581.417542,531.153259 581.093506,531.019043 
	C581.093506,531.019043 580.941711,530.633850 580.914368,530.074097 
	C578.715637,526.811096 576.924500,521.874695 572.889954,523.926575 
	C568.556519,526.130493 564.655823,529.996460 561.764893,534.002197 
	C558.740479,538.192749 557.127014,543.405518 554.923584,548.183777 
	C552.844910,552.691345 551.040527,557.344482 548.683411,561.699829 
	C545.465698,567.645142 541.772705,573.331055 538.401062,579.195801 
	C531.638306,590.959106 524.946533,602.763245 518.246216,614.562317 
	C516.790710,617.125427 515.112244,619.620850 514.080078,622.352844 
	C512.048828,627.729309 511.104736,633.625977 508.438293,638.629211 
	C503.486603,647.920532 497.461426,656.632812 492.194916,665.765869 
	C488.810150,671.635620 485.999603,677.835388 482.901062,683.871460 
	C477.010651,695.345947 474.035553,708.543823 461.748413,716.116699 
	C458.008362,718.421814 454.739349,720.537964 450.302826,721.136475 
	C446.270233,721.680542 442.387970,723.271179 438.400177,724.238525 
	C435.669312,724.900940 432.587952,726.735962 430.695282,722.761963 
	C430.695282,722.761963 430.797516,722.993713 431.058502,722.855957 
	C432.213013,721.812195 433.106537,720.906128 434.456970,720.000000 
	C446.745605,721.232605 455.063568,715.520508 460.869751,705.996399 
	C464.972656,699.266296 468.350891,692.060669 471.650726,684.882507 
	C476.690765,673.919006 481.356689,662.783875 486.256409,651.754944 
	C486.916199,650.269714 488.039154,648.994995 488.900604,647.593872 
	C492.150146,642.308411 495.606445,637.133911 498.566315,631.690125 
	C503.360565,622.872498 507.753265,613.837524 512.451477,604.966309 
	C515.757385,598.724304 519.770081,592.811584 522.581299,586.365417 
	C525.261353,580.220093 526.724976,573.551270 528.852417,567.155579 
	C530.508362,562.177368 526.331787,555.589661 520.964722,554.649780 
	C519.417419,550.836243 516.987122,550.217651 513.298706,550.879517 
	C499.180695,553.412964 487.001678,560.646790 474.237030,566.467407 
	C471.986084,567.493774 469.917175,568.933716 467.640228,569.886292 
	C457.298187,574.212769 446.839661,578.267700 436.565247,582.746643 
	C428.995728,586.046509 421.713959,590.001587 414.180878,593.391113 
	C404.968506,597.536377 395.567688,601.263184 386.359558,605.417480 
	C377.630585,609.355530 368.871857,613.289551 360.446686,617.821167 
	C352.377625,622.161255 344.761108,627.336365 336.852142,631.985352 
	C335.024841,633.059509 332.816742,633.485718 330.254639,634.398682 
	C330.987457,630.963379 331.427704,628.899536 331.867920,626.835754 
	C331.867920,626.835754 331.901672,626.933105 332.143341,626.792847 
	C332.553711,626.054260 332.722443,625.455994 332.891174,624.857727 
	C332.891174,624.857727 332.904144,624.973999 333.293091,624.961975 
	C335.467316,624.674866 337.492004,624.851379 338.999603,624.052307 
	C349.776550,618.340210 360.193176,612.071045 367.150055,601.598145 
	C368.873413,599.003784 370.038635,596.033997 371.413818,593.214111 
	C373.265106,589.417786 374.572388,585.235840 377.018799,581.879578 
	C380.322937,577.346619 384.588226,573.526001 388.228546,569.220032 
	C389.489502,567.728516 390.056030,565.666138 391.054291,563.930420 
	C391.676575,562.848450 392.620148,561.950500 393.236115,560.865845 
	C396.526733,555.070984 400.182495,549.432190 402.888824,543.371887 
	C405.397980,537.752869 406.264923,531.376465 408.945648,525.863953 
	C412.753784,518.032898 418.018768,510.910675 421.833405,503.082214 
	C427.550476,491.349701 432.587677,479.283966 437.813507,467.316040 
	C438.658478,465.381042 438.553406,462.954803 439.625793,461.209259 
	C443.436127,455.007111 447.649689,449.054260 451.545593,442.902557 
	C454.218262,438.682312 457.515656,434.571136 458.976624,429.921875 
	C464.098297,413.623169 472.194763,398.689911 479.508667,383.409851 
	C483.534180,374.999908 489.392670,367.392090 492.784546,358.776917 
	C495.718445,351.325073 501.395874,345.774231 503.979523,337.939545 
	C507.954651,325.885406 512.170959,314.224274 511.063965,301.281708 
	C510.822601,298.460052 510.095154,296.794342 507.158691,296.687225 
	C509.893921,293.444733 510.305664,287.684509 516.435120,289.356934 
	C516.435120,289.356934 516.497498,289.524719 516.419678,289.884094 
	C516.609619,290.474030 516.877319,290.704529 517.145081,290.935059 
	C517.145081,290.935059 517.052185,290.955231 517.069275,291.236420 
	C517.453125,291.988220 517.819824,292.458801 518.186584,292.929413 
	C518.186584,292.929413 518.093933,292.933929 518.093994,293.216125 
	C518.461731,293.973267 518.829346,294.448151 519.197021,294.923065 
	C519.197021,294.923065 519.103149,294.929504 519.080872,295.270081 
	C520.517334,297.953308 521.976074,300.295990 523.434875,302.638672 
	C523.434875,302.638641 523.381287,302.677612 523.269409,303.075989 
	C523.820557,304.283905 524.483582,305.093414 525.146667,305.902924 
	C525.146667,305.902924 525.063477,305.946899 525.129517,306.132538 
	C525.335083,306.621948 525.558289,306.840118 525.865173,306.972626 
	C525.865173,306.972626 526.051697,307.357880 526.047241,307.952515 
	C527.026855,310.030365 528.010986,311.513580 528.995056,312.996826 
M531.092346,435.346130 
	C525.394897,424.464233 519.697388,413.582367 513.403931,401.562103 
	C490.401978,444.790314 468.170868,486.569885 445.364655,529.430237 
	C447.687378,528.421814 448.843109,527.925903 449.994080,527.419250 
	C468.312775,519.354492 486.593903,511.203186 504.960541,503.249207 
	C520.130310,496.679718 535.379333,490.291260 550.641418,483.938232 
	C554.724670,482.238556 555.601379,480.607819 553.113464,476.254608 
	C545.554810,463.028656 538.659668,449.423462 531.092346,435.346130 
z"/>
<path fill="#1B9FDB" opacity="1.000000" stroke="none" 
	d="
M507.009613,296.996094 
	C510.095154,296.794342 510.822601,298.460052 511.063965,301.281708 
	C512.170959,314.224274 507.954651,325.885406 503.979523,337.939545 
	C501.395874,345.774231 495.718445,351.325073 492.784546,358.776917 
	C489.392670,367.392090 483.534180,374.999908 479.508667,383.409851 
	C472.194763,398.689911 464.098297,413.623169 458.976624,429.921875 
	C457.515656,434.571136 454.218262,438.682312 451.545593,442.902557 
	C447.649689,449.054260 443.436127,455.007111 439.625793,461.209259 
	C438.553406,462.954803 438.658478,465.381042 437.813507,467.316040 
	C432.587677,479.283966 427.550476,491.349701 421.833405,503.082214 
	C418.018768,510.910675 412.753784,518.032898 408.945648,525.863953 
	C406.264923,531.376465 405.397980,537.752869 402.888824,543.371887 
	C400.182495,549.432190 396.526733,555.070984 393.236115,560.865845 
	C392.620148,561.950500 391.676575,562.848450 391.054291,563.930420 
	C390.056030,565.666138 389.489502,567.728516 388.228546,569.220032 
	C384.588226,573.526001 380.322937,577.346619 377.018799,581.879578 
	C374.572388,585.235840 373.265106,589.417786 371.413818,593.214111 
	C370.038635,596.033997 368.873413,599.003784 367.150055,601.598145 
	C360.193176,612.071045 349.776550,618.340210 338.999603,624.052307 
	C337.492004,624.851379 335.467316,624.674866 333.257324,624.915649 
	C332.997375,624.331238 333.162079,623.781067 333.837006,622.972412 
	C334.452118,622.372620 334.557007,622.031311 334.661896,621.689941 
	C334.661896,621.689941 334.570160,621.703674 334.928986,621.681580 
	C336.202362,619.445251 337.116882,617.230957 338.031403,615.016724 
	C342.760345,605.782043 347.489319,596.547424 352.867584,587.099976 
	C354.966614,583.792297 356.416290,580.697449 357.865967,577.602600 
	C357.865967,577.602600 357.846313,577.268311 358.161987,576.992676 
	C358.599854,576.399658 358.722015,576.082336 358.844177,575.765015 
	C358.844147,575.765015 358.828613,575.873596 359.111328,575.870483 
	C359.518829,575.209106 359.643646,574.550903 359.768494,573.892700 
	C359.945831,573.341980 360.123199,572.791199 360.839355,571.952637 
	C361.560944,571.075317 361.743713,570.485962 361.926514,569.896606 
	C361.926544,569.896606 361.979553,569.983398 362.290283,569.933899 
	C364.679810,565.527405 366.758575,561.170471 368.837341,556.813538 
	C368.837372,556.813538 368.876831,556.917358 369.123291,556.783386 
	C369.535797,556.044373 369.701874,555.439331 369.867920,554.834290 
	C369.867920,554.834290 369.903320,554.932068 370.145264,554.792114 
	C370.552643,554.051147 370.718079,553.450073 370.883545,552.848999 
	C370.883545,552.848999 370.928497,552.958801 371.246277,552.914185 
	C372.691681,550.220032 373.819305,547.570374 374.946899,544.920776 
	C374.946899,544.920776 374.997559,544.985840 375.318970,544.934937 
	C376.722809,542.484985 377.805237,540.085815 378.887665,537.686707 
	C378.887665,537.686707 378.890778,537.309875 379.196472,537.011353 
	C379.629242,536.409241 379.756317,536.105591 379.883362,535.801941 
	C379.883362,535.801941 379.907440,535.931641 380.141235,535.791992 
	C380.542175,535.048523 380.709320,534.444580 380.876434,533.840698 
	C380.876434,533.840698 380.907532,533.927551 381.119629,533.819153 
	C381.384796,533.376404 381.437866,533.042053 381.490936,532.707703 
	C381.490936,532.707703 381.428955,532.497009 381.879547,532.609314 
	C387.562805,532.137146 383.900208,528.123230 384.950073,525.926086 
	C384.950073,525.926086 385.001404,525.984802 385.330475,525.928955 
	C386.028625,524.839172 386.397736,523.805115 386.766815,522.771118 
	C386.766815,522.771118 386.820465,522.874512 387.079041,522.756287 
	C387.499298,522.025635 387.661011,521.413269 387.822693,520.800842 
	C387.822693,520.800842 387.864624,520.909851 388.112671,520.778564 
	C388.524231,520.038452 388.687775,519.429688 388.851288,518.820862 
	C388.851288,518.820862 388.892181,518.924377 389.138947,518.779053 
	C389.562775,518.014099 389.739807,517.394348 389.916840,516.774658 
	C390.055450,516.252686 390.194092,515.730652 390.931030,515.049500 
	C393.281189,511.185791 395.033020,507.481262 396.784851,503.776733 
	C396.784851,503.776733 396.831818,503.889252 397.085266,503.767090 
	C397.509521,503.035858 397.680359,502.426819 397.851196,501.817749 
	C397.851196,501.817749 397.893311,501.925690 398.142029,501.775177 
	C398.560425,500.989868 398.730103,500.355072 398.899780,499.720276 
	C398.899780,499.720276 398.911438,499.325195 399.217834,499.008972 
	C399.658264,498.386749 399.792328,498.080780 399.926392,497.774780 
	C400.067993,497.252716 400.209625,496.730652 400.950836,496.050049 
	C403.305756,492.193298 405.061096,488.495087 406.816406,484.796906 
	C406.816437,484.796906 406.840515,484.948090 407.124908,484.909668 
	C407.518005,484.206726 407.626709,483.542236 407.735413,482.877747 
	C408.094177,482.101196 408.452972,481.324677 409.171265,480.131409 
	C409.765564,479.478729 409.898102,479.195068 409.928375,478.863617 
	C409.928375,478.863617 409.945709,478.954407 410.261536,478.916931 
	C412.982758,473.847382 415.388184,468.815369 417.793579,463.783356 
	C417.793610,463.783356 417.838135,463.895264 418.091309,463.769470 
	C418.508118,463.031586 418.671783,462.419495 418.835449,461.807434 
	C418.835480,461.807434 418.875793,461.917694 419.123108,461.780762 
	C419.517212,461.026764 419.664032,460.409698 419.810852,459.792633 
	C419.810822,459.792633 419.845612,459.943573 420.186798,459.885925 
	C420.978088,458.500793 421.428192,457.173340 421.878296,455.845856 
	C421.878265,455.845856 421.910736,455.939056 422.152557,455.796814 
	C422.560577,455.055511 422.726807,454.456451 422.893005,453.857391 
	C422.893005,453.857391 422.938263,453.960114 423.268677,453.905212 
	C424.041626,452.531769 424.484131,451.213287 424.926636,449.894775 
	C424.926636,449.894775 424.979065,449.979584 425.311127,449.940033 
	C426.720154,447.476654 427.797119,445.052826 428.874084,442.629028 
	C428.990417,442.141907 429.106781,441.654785 429.757080,440.917450 
	C430.482544,440.054901 430.673981,439.442596 430.865417,438.830292 
	C430.865448,438.830292 430.904510,438.945923 431.238831,438.893555 
	C432.013153,437.514191 432.453156,436.187225 432.893158,434.860229 
	C432.893158,434.860229 432.923431,434.945648 433.164062,434.801239 
	C433.573822,434.062927 433.742950,433.469055 433.912079,432.875153 
	C433.912079,432.875153 433.944305,432.955261 434.231537,432.833679 
	C436.277435,429.068542 438.036102,425.424957 439.794800,421.781372 
	C439.794830,421.781403 439.841125,421.894318 440.092926,421.769470 
	C440.508545,421.033539 440.672333,420.422485 440.836151,419.811432 
	C440.836151,419.811432 440.875854,419.915375 441.120178,419.785431 
	C441.542267,419.060211 441.720032,418.464935 441.897827,417.869659 
	C441.897827,417.869659 441.943848,417.952271 442.149658,417.830322 
	C442.418121,417.372284 442.480774,417.036194 442.543396,416.700073 
	C442.543396,416.700073 442.514740,416.622894 442.859863,416.600342 
	C443.308258,415.965118 443.411560,415.352478 443.514832,414.739807 
	C443.514832,414.739807 443.562805,414.670715 443.929626,414.657410 
	C445.798065,411.358398 447.299652,408.072662 448.801239,404.786926 
	C448.801239,404.786926 448.846100,404.897552 449.097412,404.771484 
	C449.514221,404.036285 449.679718,403.427155 449.845184,402.818024 
	C449.845184,402.818024 449.883667,402.921112 450.130310,402.783112 
	C450.530304,402.034027 450.683594,401.422974 450.836914,400.811890 
	C450.836914,400.811890 450.880829,400.917542 451.130249,400.773560 
	C451.556519,400.004700 451.733368,399.379822 451.910217,398.754944 
	C452.046448,398.237823 452.182648,397.720673 452.847534,396.934021 
	C453.558319,396.073029 453.740387,395.481537 453.922424,394.890015 
	C453.922424,394.890015 453.960449,394.967346 454.248871,394.829773 
	C455.007385,393.436127 455.477478,392.179993 455.947571,390.923889 
	C455.947571,390.923889 456.000519,390.984711 456.319794,390.935516 
	C457.696625,388.522064 458.754181,386.157776 459.811768,383.793488 
	C459.811737,383.793488 459.855133,383.903442 460.104248,383.776245 
	C460.524384,383.043182 460.695374,382.437256 460.866333,381.831360 
	C460.866333,381.831360 460.902405,381.931580 461.144043,381.792175 
	C461.550385,381.050903 461.715118,380.448975 461.879852,379.847076 
	C461.879852,379.847076 461.914978,379.939362 462.159973,379.788086 
	C462.576935,379.021393 462.748962,378.405945 462.920990,377.790497 
	C462.920990,377.790497 462.953644,377.369385 463.383575,377.122131 
	C465.144623,374.181641 466.475739,371.488373 467.806854,368.795135 
	C467.806854,368.795135 467.850403,368.901215 468.103394,368.771332 
	C468.513336,368.028046 468.670258,367.414673 468.827148,366.801270 
	C468.827148,366.801270 468.858459,366.904266 469.158508,366.803070 
	C470.619110,364.105988 471.779633,361.510101 472.940186,358.914246 
	C472.940186,358.914246 472.993408,358.985809 473.324341,358.928589 
	C474.391937,357.113556 475.128601,355.355743 475.865234,353.597961 
	C475.865265,353.597961 475.847229,353.264587 476.163208,352.990723 
	C476.601807,352.401031 476.724457,352.085236 476.847107,351.769470 
	C476.847107,351.769470 476.873566,351.910431 477.111755,351.778870 
	C477.519043,351.040527 477.688171,350.433807 477.857330,349.827057 
	C477.857330,349.827057 477.891785,349.915436 478.106018,349.811829 
	C478.375641,349.375092 478.431030,349.042023 478.486389,348.708923 
	C478.486389,348.708923 478.462250,348.580902 478.819885,348.571808 
	C479.271851,347.959137 479.366180,347.355591 479.460480,346.752014 
	C479.460480,346.752014 479.535675,346.704773 479.896973,346.635498 
	C480.486481,345.685547 480.714691,344.804810 480.942932,343.924103 
	C480.942932,343.924103 480.997314,343.991699 481.321838,343.934937 
	C482.363373,342.182495 483.080383,340.486877 483.797424,338.791260 
	C483.797424,338.791260 483.852661,338.894684 484.113098,338.751282 
	C484.542328,337.959595 484.711121,337.311340 484.879944,336.663086 
	C484.879944,336.663086 484.875549,336.298462 485.184692,336.008026 
	C485.621826,335.411865 485.749817,335.106140 485.877747,334.800415 
	C485.877747,334.800415 485.873718,334.899414 486.193115,334.881287 
	C488.937469,329.834839 491.362488,324.806488 493.787476,319.778168 
	C493.787476,319.778168 493.784973,319.943237 494.115112,319.906250 
	C497.432953,319.398224 496.858398,317.657898 495.901764,315.781403 
	C496.043243,315.256653 496.184723,314.731873 496.856140,313.936096 
	C497.566315,313.076324 497.746582,312.487610 497.926819,311.898865 
	C497.926819,311.898865 497.980225,311.991211 498.287506,311.984589 
	C499.062378,311.984100 499.529968,311.990234 500.337311,311.947662 
	C502.084747,310.181763 505.234833,309.150238 503.003296,305.749359 
	C503.007812,305.499573 503.018280,304.999969 503.233398,304.890015 
	C503.716705,304.580109 503.899536,304.320099 503.997833,303.604736 
	C503.956116,302.418945 503.913574,301.628479 503.871033,300.837982 
	C503.871033,300.837982 503.907257,300.935242 504.147888,300.796509 
	C504.558838,300.059998 504.729095,299.462158 504.899384,298.864349 
	C504.899384,298.864349 504.929688,298.947723 505.168884,298.804138 
	C505.581940,298.070465 505.755829,297.480347 505.929718,296.890228 
	C505.929718,296.890228 505.974060,296.977631 506.210999,296.978241 
	C506.635193,296.984619 506.822388,296.990356 507.009613,296.996094 
z"/>
<path fill="#1B9FDB" opacity="1.000000" stroke="none" 
	d="
M521.002441,555.002441 
	C526.331787,555.589661 530.508362,562.177368 528.852417,567.155579 
	C526.724976,573.551270 525.261353,580.220093 522.581299,586.365417 
	C519.770081,592.811584 515.757385,598.724304 512.451477,604.966309 
	C507.753265,613.837524 503.360565,622.872498 498.566315,631.690125 
	C495.606445,637.133911 492.150146,642.308411 488.900604,647.593872 
	C488.039154,648.994995 486.916199,650.269714 486.256409,651.754944 
	C481.356689,662.783875 476.690765,673.919006 471.650726,684.882507 
	C468.350891,692.060669 464.972656,699.266296 460.869751,705.996399 
	C455.063568,715.520508 446.745605,721.232605 434.457153,719.594788 
	C433.971832,718.379761 433.943298,717.569885 433.914795,716.760071 
	C443.565765,698.490784 453.118378,680.168640 462.888763,661.963440 
	C481.730133,626.856262 500.694519,591.815125 519.959717,556.302612 
	C520.541870,555.573181 520.772156,555.287842 521.002441,555.002441 
z"/>
<path fill="#0F9DE5" opacity="1.000000" stroke="none" 
	d="
M430.404358,722.995911 
	C432.587952,726.735962 435.669312,724.900940 438.400177,724.238525 
	C442.387970,723.271179 446.270233,721.680542 450.302826,721.136475 
	C454.739349,720.537964 458.008362,718.421814 461.748413,716.116699 
	C474.035553,708.543823 477.010651,695.345947 482.901062,683.871460 
	C485.999603,677.835388 488.810150,671.635620 492.194916,665.765869 
	C497.461426,656.632812 503.486603,647.920532 508.438293,638.629211 
	C511.104736,633.625977 512.048828,627.729309 514.080078,622.352844 
	C515.112244,619.620850 516.790710,617.125427 518.246216,614.562317 
	C524.946533,602.763245 531.638306,590.959106 538.401062,579.195801 
	C541.772705,573.331055 545.465698,567.645142 548.683411,561.699829 
	C551.040527,557.344482 552.844910,552.691345 554.923584,548.183777 
	C557.127014,543.405518 558.740479,538.192749 561.764893,534.002197 
	C564.655823,529.996460 568.556519,526.130493 572.889954,523.926575 
	C576.924500,521.874695 578.715637,526.811096 580.902954,529.867432 
	C579.464355,531.155212 577.365051,531.742737 576.647949,533.074463 
	C543.651001,594.356323 510.849915,655.743835 477.827393,717.011902 
	C470.274994,731.024048 473.844025,728.854675 457.838165,728.994568 
	C449.846985,729.064453 441.854675,729.046082 433.863098,729.012756 
	C428.486298,728.990295 428.045959,728.266724 430.404358,722.995911 
z"/>
<path fill="#0F9DE5" opacity="1.000000" stroke="none" 
	d="
M520.964722,554.649780 
	C520.772156,555.287842 520.541870,555.573181 520.060669,555.980164 
	C508.823944,560.952454 497.827637,565.779724 486.854950,570.660034 
	C474.657135,576.085327 462.471680,581.538635 450.297028,587.015686 
	C429.839386,596.219055 409.419769,605.507446 388.936707,614.653870 
	C370.944244,622.688049 352.912811,630.637024 334.822449,638.447205 
	C332.740448,639.346069 330.169952,639.113464 327.825928,639.405457 
	C328.145325,636.961609 328.243042,634.460205 328.858063,632.093201 
	C329.306641,630.366821 330.437073,628.817627 331.565735,627.012573 
	C331.427704,628.899536 330.987457,630.963379 330.254639,634.398682 
	C332.816742,633.485718 335.024841,633.059509 336.852142,631.985352 
	C344.761108,627.336365 352.377625,622.161255 360.446686,617.821167 
	C368.871857,613.289551 377.630585,609.355530 386.359558,605.417480 
	C395.567688,601.263184 404.968506,597.536377 414.180878,593.391113 
	C421.713959,590.001587 428.995728,586.046509 436.565247,582.746643 
	C446.839661,578.267700 457.298187,574.212769 467.640228,569.886292 
	C469.917175,568.933716 471.986084,567.493774 474.237030,566.467407 
	C487.001678,560.646790 499.180695,553.412964 513.298706,550.879517 
	C516.987122,550.217651 519.417419,550.836243 520.964722,554.649780 
z"/>
<path fill="#0F9DE5" opacity="1.000000" stroke="none" 
	d="
M636.025757,635.482910 
	C649.817505,635.740051 663.806335,636.597412 677.805786,636.837891 
	C684.599365,636.954651 691.412720,635.915955 698.548218,635.215149 
	C697.958435,636.034485 697.028015,637.923218 696.118225,637.913330 
	C676.892517,637.703613 657.668884,637.291382 638.446228,636.854736 
	C637.699219,636.837769 636.966553,636.185486 636.025757,635.482910 
z"/>
<path fill="#169DE0" opacity="1.000000" stroke="none" 
	d="
M493.499268,319.966980 
	C491.362488,324.806488 488.937469,329.834839 486.149963,334.856934 
	C488.261963,329.952393 490.736511,325.054077 493.499268,319.966980 
z"/>
<path fill="#169DE0" opacity="1.000000" stroke="none" 
	d="
M417.508423,463.975769 
	C415.388184,468.815369 412.982758,473.847382 410.220306,478.896027 
	C412.316620,473.997803 414.769958,469.083008 417.508423,463.975769 
z"/>
<path fill="#0F9DE5" opacity="1.000000" stroke="none" 
	d="
M507.158691,296.687225 
	C506.822388,296.990356 506.635193,296.984619 506.167847,296.955017 
	C507.115997,294.481323 508.239258,291.971405 509.598694,289.596741 
	C511.347626,286.541656 513.577698,285.945190 516.295532,289.060669 
	C510.305664,287.684509 509.893921,293.444733 507.158691,296.687225 
z"/>
<path fill="#0F9DE5" opacity="1.000000" stroke="none" 
	d="
M548.069824,348.586761 
	C545.775574,344.835510 543.415527,340.728577 541.090698,336.232178 
	C543.418579,339.972168 545.711304,344.101624 548.069824,348.586761 
z"/>
<path fill="#0F9DE5" opacity="1.000000" stroke="none" 
	d="
M573.349365,396.238220 
	C571.057007,392.519501 568.661438,388.468445 566.446045,384.071167 
	C568.832764,387.785278 571.039429,391.845581 573.349365,396.238220 
z"/>
<path fill="#0F9DE5" opacity="1.000000" stroke="none" 
	d="
M583.016479,414.596069 
	C580.732361,410.814758 578.389404,406.678864 576.069153,402.149231 
	C578.380493,405.917480 580.669067,410.079498 583.016479,414.596069 
z"/>
<path fill="#169DE0" opacity="1.000000" stroke="none" 
	d="
M368.545288,556.996094 
	C366.758575,561.170471 364.679810,565.527405 362.246094,569.908752 
	C364.011841,565.681580 366.132507,561.430115 368.545288,556.996094 
z"/>
<path fill="#169DE0" opacity="1.000000" stroke="none" 
	d="
M406.527039,484.983398 
	C405.061096,488.495087 403.305756,492.193298 401.192749,495.916260 
	C402.635956,492.350616 404.436829,488.760223 406.527039,484.983398 
z"/>
<path fill="#0F9DE5" opacity="1.000000" stroke="none" 
	d="
M563.112671,377.561035 
	C561.123657,374.146515 559.082214,370.362213 557.060791,366.187408 
	C559.073914,369.595032 561.067078,373.393127 563.112671,377.561035 
z"/>
<path fill="#169DE0" opacity="1.000000" stroke="none" 
	d="
M396.496063,503.963989 
	C395.033020,507.481262 393.281189,511.185791 391.169189,514.911377 
	C392.608429,511.338684 394.407867,507.744934 396.496063,503.963989 
z"/>
<path fill="#0F9DE5" opacity="1.000000" stroke="none" 
	d="
M499.997559,311.996338 
	C499.529968,311.990234 499.062378,311.984100 498.244751,311.952698 
	C499.689148,308.348846 501.483582,304.770294 503.574524,301.014862 
	C503.913574,301.628479 503.956116,302.418945 503.780518,303.712311 
	C503.289673,304.413452 503.108337,304.675049 503.018280,304.999969 
	C503.018280,304.999969 503.007812,305.499573 502.730957,305.946228 
	C501.635254,308.260681 500.816406,310.128510 499.997559,311.996338 
z"/>
<path fill="#0F9DE5" opacity="1.000000" stroke="none" 
	d="
M555.057617,361.572021 
	C553.096313,358.470642 551.069946,355.016357 549.064453,351.169647 
	C551.054443,354.257843 553.023560,357.738495 555.057617,361.572021 
z"/>
<path fill="#169DE0" opacity="1.000000" stroke="none" 
	d="
M439.505310,421.968231 
	C438.036102,425.424957 436.277435,429.068542 434.188538,432.829956 
	C435.644135,429.350281 437.429993,425.752686 439.505310,421.968231 
z"/>
<path fill="#0F9DE5" opacity="1.000000" stroke="none" 
	d="
M539.027588,331.607849 
	C537.079407,328.516479 535.066833,325.071045 533.088257,321.238770 
	C535.069275,324.319244 537.016235,327.786499 539.027588,331.607849 
z"/>
<path fill="#169DE0" opacity="1.000000" stroke="none" 
	d="
M448.509338,404.971191 
	C447.299652,408.072662 445.798065,411.358398 443.922546,414.615967 
	C445.104889,411.443726 446.661194,408.299591 448.509338,404.971191 
z"/>
<path fill="#0F9DE5" opacity="1.000000" stroke="none" 
	d="
M630.621582,625.751282 
	C632.336304,628.408203 634.138550,631.403137 635.901123,634.786255 
	C634.143982,632.146057 632.426514,629.117676 630.621582,625.751282 
z"/>
<path fill="#169DE0" opacity="1.000000" stroke="none" 
	d="
M357.574402,577.813110 
	C356.416290,580.697449 354.966614,583.792297 353.153564,586.905823 
	C354.287720,583.957520 355.785248,580.990540 357.574402,577.813110 
z"/>
<path fill="#169DE0" opacity="1.000000" stroke="none" 
	d="
M384.685822,526.144287 
	C383.900208,528.123230 387.562805,532.137146 381.922913,532.508423 
	C382.484314,530.317627 383.452942,528.340027 384.685822,526.144287 
z"/>
<path fill="#169DE0" opacity="1.000000" stroke="none" 
	d="
M428.586670,442.834412 
	C427.797119,445.052826 426.720154,447.476654 425.266632,449.917542 
	C426.026459,447.636322 427.162872,445.338074 428.586670,442.834412 
z"/>
<path fill="#169DE0" opacity="1.000000" stroke="none" 
	d="
M374.672150,545.130188 
	C373.819305,547.570374 372.691681,550.220032 371.197205,552.880859 
	C372.019409,550.374573 373.208405,547.857117 374.672150,545.130188 
z"/>
<path fill="#0F9DE5" opacity="1.000000" stroke="none" 
	d="
M523.341675,302.304993 
	C521.976074,300.295990 520.517334,297.953308 519.096924,295.225861 
	C520.506409,297.217834 521.877441,299.594543 523.341675,302.304993 
z"/>
<path fill="#169DE0" opacity="1.000000" stroke="none" 
	d="
M467.518494,368.976166 
	C466.475739,371.488373 465.144623,374.181641 463.479797,376.934143 
	C464.507446,374.381317 465.868805,371.769257 467.518494,368.976166 
z"/>
<path fill="#0F9DE5" opacity="1.000000" stroke="none" 
	d="
M337.810730,615.281982 
	C337.116882,617.230957 336.202362,619.445251 334.920685,621.635986 
	C335.565704,619.590698 336.577881,617.568909 337.810730,615.281982 
z"/>
<path fill="#169DE0" opacity="1.000000" stroke="none" 
	d="
M459.523315,383.975037 
	C458.754181,386.157776 457.696625,388.522064 456.282135,390.921112 
	C457.028412,388.689453 458.131622,386.423004 459.523315,383.975037 
z"/>
<path fill="#169DE0" opacity="1.000000" stroke="none" 
	d="
M472.664520,359.123047 
	C471.779633,361.510101 470.619110,364.105988 469.105713,366.792450 
	C469.964905,364.365967 471.176910,361.848907 472.664520,359.123047 
z"/>
<path fill="#169DE0" opacity="1.000000" stroke="none" 
	d="
M378.599609,537.888367 
	C377.805237,540.085815 376.722809,542.484985 375.280792,544.919434 
	C376.051331,542.666565 377.181458,540.378296 378.599609,537.888367 
z"/>
<path fill="#0F9DE5" opacity="1.000000" stroke="none" 
	d="
M433.625275,716.957764 
	C433.943298,717.569885 433.971832,718.379761 434.000183,719.594849 
	C433.106537,720.906128 432.213013,721.812195 430.985718,722.752319 
	C431.546539,720.909424 432.441132,719.032471 433.625275,716.957764 
z"/>
<path fill="#0F9DE5" opacity="1.000000" stroke="none" 
	d="
M528.952881,312.658447 
	C528.010986,311.513580 527.026855,310.030365 526.062439,308.165955 
	C527.024963,309.296570 527.967834,310.808319 528.952881,312.658447 
z"/>
<path fill="#169DE0" opacity="1.000000" stroke="none" 
	d="
M483.511719,338.964172 
	C483.080383,340.486877 482.363373,342.182495 481.283813,343.914001 
	C481.689545,342.345612 482.457794,340.741333 483.511719,338.964172 
z"/>
<path fill="#169DE0" opacity="1.000000" stroke="none" 
	d="
M475.581238,353.800446 
	C475.128601,355.355743 474.391937,357.113556 473.283813,358.909973 
	C473.707336,357.300018 474.502289,355.651489 475.581238,353.800446 
z"/>
<path fill="#0F9DE5" opacity="1.000000" stroke="none" 
	d="
M532.047974,318.610657 
	C531.098755,317.396637 530.087036,315.839630 529.107788,313.888733 
	C530.088684,315.085785 531.037109,316.676727 532.047974,318.610657 
z"/>
<path fill="#169DE0" opacity="1.000000" stroke="none" 
	d="
M495.619568,315.965637 
	C496.858398,317.657898 497.432953,319.398224 494.087036,319.828613 
	C494.265045,318.575256 494.801208,317.362549 495.619568,315.965637 
z"/>
<path fill="#169DE0" opacity="1.000000" stroke="none" 
	d="
M421.602112,456.031433 
	C421.428192,457.173340 420.978088,458.500793 420.138977,459.825012 
	C420.275269,458.620178 420.800598,457.418610 421.602112,456.031433 
z"/>
<path fill="#169DE0" opacity="1.000000" stroke="none" 
	d="
M424.657654,450.089722 
	C424.484131,451.213287 424.041626,452.531769 423.220276,453.876831 
	C423.357178,452.697144 423.872925,451.490936 424.657654,450.089722 
z"/>
<path fill="#169DE0" opacity="1.000000" stroke="none" 
	d="
M432.611053,435.041382 
	C432.453156,436.187225 432.013153,437.514191 431.189575,438.857483 
	C431.313690,437.656738 431.821320,436.439636 432.611053,435.041382 
z"/>
<path fill="#0F9DE5" opacity="1.000000" stroke="none" 
	d="
M585.061890,418.600525 
	C584.417175,417.852051 583.721069,416.776001 583.040283,415.312775 
	C583.707214,416.041382 584.358826,417.157166 585.061890,418.600525 
z"/>
<path fill="#0F9DE5" opacity="1.000000" stroke="none" 
	d="
M582.747131,533.432251 
	C583.300903,533.923401 583.933167,534.728760 584.311401,535.754395 
	C583.646729,535.231995 583.236206,534.489258 582.747131,533.432251 
z"/>
<path fill="#169DE0" opacity="1.000000" stroke="none" 
	d="
M386.493835,522.933105 
	C386.397736,523.805115 386.028625,524.839172 385.293823,525.915649 
	C385.359039,525.003845 385.789978,524.049500 386.493835,522.933105 
z"/>
<path fill="#0F9DE5" opacity="1.000000" stroke="none" 
	d="
M525.093506,305.593811 
	C524.483582,305.093414 523.820557,304.283905 523.289246,303.102478 
	C523.960815,303.581970 524.500610,304.433319 525.093506,305.593811 
z"/>
<path fill="#169DE0" opacity="1.000000" stroke="none" 
	d="
M455.689697,391.130768 
	C455.477478,392.179993 455.007385,393.436127 454.206299,394.823242 
	C454.394135,393.748688 454.912994,392.543182 455.689697,391.130768 
z"/>
<path fill="#169DE0" opacity="1.000000" stroke="none" 
	d="
M359.522766,574.041016 
	C359.643646,574.550903 359.518829,575.209106 359.068085,575.836670 
	C358.920441,575.267212 359.098755,574.728271 359.522766,574.041016 
z"/>
<path fill="#169DE0" opacity="1.000000" stroke="none" 
	d="
M407.490906,483.030212 
	C407.626709,483.542236 407.518005,484.206726 407.082336,484.846008 
	C406.919067,484.274780 407.082764,483.728729 407.490906,483.030212 
z"/>
<path fill="#0F9DE5" opacity="1.000000" stroke="none" 
	d="
M574.818115,398.715454 
	C574.306091,398.445496 573.764465,397.898926 573.357544,397.038574 
	C573.924377,397.296173 574.356506,397.867523 574.818115,398.715454 
z"/>
<path fill="#169DE0" opacity="1.000000" stroke="none" 
	d="
M480.685364,344.110046 
	C480.714691,344.804810 480.486481,345.685547 479.896667,346.591125 
	C479.832642,345.842651 480.130219,345.069305 480.685364,344.110046 
z"/>
<path fill="#0F9DE5" opacity="1.000000" stroke="none" 
	d="
M566.442566,383.207550 
	C566.019043,382.876404 565.530273,382.250275 565.062866,381.256653 
	C565.515320,381.563629 565.946350,382.238068 566.442566,383.207550 
z"/>
<path fill="#0F9DE5" opacity="1.000000" stroke="none" 
	d="
M586.413086,421.294403 
	C585.997864,420.943024 585.518250,420.285004 585.059143,419.261353 
	C585.502686,419.593079 585.925659,420.290436 586.413086,421.294403 
z"/>
<path fill="#0F9DE5" opacity="1.000000" stroke="none" 
	d="
M518.133667,292.625244 
	C517.819824,292.458801 517.453125,291.988220 517.092163,291.194763 
	C517.425598,291.354980 517.753174,291.838043 518.133667,292.625244 
z"/>
<path fill="#0F9DE5" opacity="1.000000" stroke="none" 
	d="
M628.818176,622.202148 
	C629.118652,622.398865 629.513489,622.916565 629.911438,623.776733 
	C629.580505,623.587158 629.246582,623.055176 628.818176,622.202148 
z"/>
<path fill="#169DE0" opacity="1.000000" stroke="none" 
	d="
M419.543396,459.956543 
	C419.664032,460.409698 419.517212,461.026764 419.064453,461.777954 
	C418.931000,461.314911 419.103485,460.717682 419.543396,459.956543 
z"/>
<path fill="#169DE0" opacity="1.000000" stroke="none" 
	d="
M361.666626,570.060913 
	C361.743713,570.485962 361.560944,571.075317 361.090820,571.804199 
	C361.004578,571.370850 361.205627,570.798035 361.666626,570.060913 
z"/>
<path fill="#169DE0" opacity="1.000000" stroke="none" 
	d="
M430.590759,438.986938 
	C430.673981,439.442596 430.482544,440.054901 429.977142,440.787842 
	C429.880859,440.320190 430.098511,439.731903 430.590759,438.986938 
z"/>
<path fill="#169DE0" opacity="1.000000" stroke="none" 
	d="
M418.570282,461.968933 
	C418.671783,462.419495 418.508118,463.031586 418.031525,463.762085 
	C417.914124,463.297150 418.109619,462.713776 418.570282,461.968933 
z"/>
<path fill="#169DE0" opacity="1.000000" stroke="none" 
	d="
M369.596405,554.989197 
	C369.701874,555.439331 369.535797,556.044373 369.067810,556.780396 
	C368.952240,556.322266 369.138550,555.733154 369.596405,554.989197 
z"/>
<path fill="#169DE0" opacity="1.000000" stroke="none" 
	d="
M370.621765,553.014282 
	C370.718079,553.450073 370.552643,554.051147 370.093262,554.791748 
	C369.986206,554.347351 370.173096,553.763428 370.621765,553.014282 
z"/>
<path fill="#169DE0" opacity="1.000000" stroke="none" 
	d="
M398.632812,499.905823 
	C398.730103,500.355072 398.560425,500.989868 398.084106,501.776398 
	C397.973572,501.315887 398.169678,500.703644 398.632812,499.905823 
z"/>
<path fill="#169DE0" opacity="1.000000" stroke="none" 
	d="
M397.579956,501.971130 
	C397.680359,502.426819 397.509521,503.035858 397.024719,503.759552 
	C396.910095,503.290955 397.109406,502.707733 397.579956,501.971130 
z"/>
<path fill="#0F9DE5" opacity="1.000000" stroke="none" 
	d="
M505.679047,297.064575 
	C505.755829,297.480347 505.581940,298.070465 505.124573,298.805939 
	C505.036835,298.380493 505.232605,297.809692 505.679047,297.064575 
z"/>
<path fill="#169DE0" opacity="1.000000" stroke="none" 
	d="
M389.651276,516.952393 
	C389.739807,517.394348 389.562775,518.014099 389.083313,518.779419 
	C388.982483,518.326660 389.184082,517.728394 389.651276,516.952393 
z"/>
<path fill="#169DE0" opacity="1.000000" stroke="none" 
	d="
M388.578308,518.974915 
	C388.687775,519.429688 388.524231,520.038452 388.054413,520.774475 
	C387.933838,520.310791 388.119598,519.719849 388.578308,518.974915 
z"/>
<path fill="#169DE0" opacity="1.000000" stroke="none" 
	d="
M387.555847,520.958130 
	C387.661011,521.413269 387.499298,522.025635 387.021179,522.749634 
	C386.899506,522.279236 387.094269,521.697327 387.555847,520.958130 
z"/>
<path fill="#0F9DE5" opacity="1.000000" stroke="none" 
	d="
M519.148193,294.614624 
	C518.829346,294.448151 518.461731,293.973267 518.109375,293.172394 
	C518.449646,293.333008 518.774536,293.819580 519.148193,294.614624 
z"/>
<path fill="#0F9DE5" opacity="1.000000" stroke="none" 
	d="
M504.636169,299.027100 
	C504.729095,299.462158 504.558838,300.059998 504.096008,300.797363 
	C503.993286,300.354584 504.183105,299.772217 504.636169,299.027100 
z"/>
<path fill="#0F9DE5" opacity="1.000000" stroke="none" 
	d="
M332.623108,625.014648 
	C332.722443,625.455994 332.553711,626.054260 332.091858,626.791382 
	C331.984161,626.343994 332.169586,625.757751 332.623108,625.014648 
z"/>
<path fill="#169DE0" opacity="1.000000" stroke="none" 
	d="
M380.609253,534.000732 
	C380.709320,534.444580 380.542175,535.048523 380.075531,535.786194 
	C379.964691,535.333557 380.153381,534.747192 380.609253,534.000732 
z"/>
<path fill="#169DE0" opacity="1.000000" stroke="none" 
	d="
M450.566010,400.969788 
	C450.683594,401.422974 450.530304,402.034027 450.075378,402.780762 
	C449.947540,402.320190 450.121338,401.723938 450.566010,400.969788 
z"/>
<path fill="#0F9DE5" opacity="1.000000" stroke="none" 
	d="
M556.133667,363.635681 
	C555.829163,363.467377 555.456848,362.999237 555.083130,362.207489 
	C555.409668,362.367889 555.737793,362.851868 556.133667,363.635681 
z"/>
<path fill="#0F9DE5" opacity="1.000000" stroke="none" 
	d="
M533.124573,320.630890 
	C532.812195,320.466949 532.445496,320.002869 532.075562,319.219696 
	C532.405029,319.377319 532.737610,319.854034 533.124573,320.630890 
z"/>
<path fill="#169DE0" opacity="1.000000" stroke="none" 
	d="
M468.555511,366.957031 
	C468.670258,367.414673 468.513336,368.028046 468.046326,368.765594 
	C467.918793,368.297394 468.101349,367.705078 468.555511,366.957031 
z"/>
<path fill="#169DE0" opacity="1.000000" stroke="none" 
	d="
M462.655487,377.967468 
	C462.748962,378.405945 462.576935,379.021393 462.110596,379.789734 
	C462.007507,379.343201 462.198761,378.743805 462.655487,377.967468 
z"/>
<path fill="#0F9DE5" opacity="1.000000" stroke="none" 
	d="
M564.415283,379.245178 
	C564.032837,379.189270 563.566833,378.864197 563.101257,378.200745 
	C563.511719,378.233551 563.921753,378.604797 564.415283,379.245178 
z"/>
<path fill="#169DE0" opacity="1.000000" stroke="none" 
	d="
M461.614441,380.008911 
	C461.715118,380.448975 461.550385,381.050903 461.090759,381.791962 
	C460.980286,381.344330 461.164673,380.757538 461.614441,380.008911 
z"/>
<path fill="#169DE0" opacity="1.000000" stroke="none" 
	d="
M460.594604,381.984558 
	C460.695374,382.437256 460.524384,383.043182 460.045380,383.771179 
	C459.932526,383.308105 460.127686,382.722931 460.594604,381.984558 
z"/>
<path fill="#169DE0" opacity="1.000000" stroke="none" 
	d="
M453.659973,395.052734 
	C453.740387,395.481537 453.558319,396.073029 453.088104,396.804810 
	C452.999146,396.368561 453.198334,395.791992 453.659973,395.052734 
z"/>
<path fill="#169DE0" opacity="1.000000" stroke="none" 
	d="
M422.630127,454.021790 
	C422.726807,454.456451 422.560577,455.055511 422.103210,455.796448 
	C421.997101,455.354309 422.182159,454.770264 422.630127,454.021790 
z"/>
<path fill="#169DE0" opacity="1.000000" stroke="none" 
	d="
M451.639954,398.930573 
	C451.733368,399.379822 451.556519,400.004700 451.073059,400.773376 
	C450.967499,400.313507 451.168579,399.709869 451.639954,398.930573 
z"/>
<path fill="#0F9DE5" opacity="1.000000" stroke="none" 
	d="
M540.098999,333.646301 
	C539.792847,333.479675 539.432800,333.013611 539.066040,332.231201 
	C539.387878,332.392212 539.716492,332.869537 540.098999,333.646301 
z"/>
<path fill="#169DE0" opacity="1.000000" stroke="none" 
	d="
M477.586243,349.980652 
	C477.688171,350.433807 477.519043,351.040527 477.040833,351.768250 
	C476.926208,351.304230 477.120697,350.719238 477.586243,349.980652 
z"/>
<path fill="#169DE0" opacity="1.000000" stroke="none" 
	d="
M449.573547,402.971313 
	C449.679718,403.427155 449.514221,404.036285 449.038025,404.765503 
	C448.918854,404.298615 449.110413,403.711609 449.573547,402.971313 
z"/>
<path fill="#0F9DE5" opacity="1.000000" stroke="none" 
	d="
M497.670837,312.066559 
	C497.746582,312.487610 497.566315,313.076324 497.101135,313.806519 
	C497.015747,313.376770 497.215271,312.805511 497.670837,312.066559 
z"/>
<path fill="#169DE0" opacity="1.000000" stroke="none" 
	d="
M443.298035,414.899048 
	C443.411560,415.352478 443.308258,415.965118 442.849945,416.560364 
	C442.690338,416.048065 442.885773,415.553192 443.298035,414.899048 
z"/>
<path fill="#169DE0" opacity="1.000000" stroke="none" 
	d="
M441.627136,418.020752 
	C441.720032,418.464935 441.542267,419.060211 441.064636,419.782166 
	C440.962006,419.329865 441.159241,418.750824 441.627136,418.020752 
z"/>
<path fill="#169DE0" opacity="1.000000" stroke="none" 
	d="
M440.569580,419.970764 
	C440.672333,420.422485 440.508545,421.033539 440.032227,421.763245 
	C439.914124,421.297943 440.108551,420.714020 440.569580,419.970764 
z"/>
<path fill="#169DE0" opacity="1.000000" stroke="none" 
	d="
M479.254150,346.903778 
	C479.366180,347.355591 479.271851,347.959137 478.824341,348.506836 
	C478.663330,347.985809 478.855560,347.520660 479.254150,346.903778 
z"/>
<path fill="#169DE0" opacity="1.000000" stroke="none" 
	d="
M484.610657,336.851837 
	C484.711121,337.311340 484.542328,337.959595 484.054443,338.751678 
	C483.937378,338.277191 484.139343,337.658905 484.610657,336.851837 
z"/>
<path fill="#0F9DE5" opacity="1.000000" stroke="none" 
	d="
M588.181641,424.622009 
	C587.867126,424.460419 587.479126,423.997498 587.090149,423.206543 
	C587.428894,423.359192 587.768494,423.839935 588.181641,424.622009 
z"/>
<path fill="#169DE0" opacity="1.000000" stroke="none" 
	d="
M433.654175,433.043335 
	C433.742950,433.469055 433.573822,434.062927 433.118774,434.802002 
	C433.020630,434.368591 433.208435,433.790039 433.654175,433.043335 
z"/>
<path fill="#0F9DE5" opacity="1.000000" stroke="none" 
	d="
M541.141968,335.623474 
	C540.822571,335.459686 540.453796,334.988708 540.091919,334.194092 
	C540.430115,334.352386 540.761292,334.834351 541.141968,335.623474 
z"/>
<path fill="#169DE0" opacity="1.000000" stroke="none" 
	d="
M379.642822,535.913574 
	C379.756317,536.105591 379.629242,536.409241 379.290253,536.847900 
	C379.186310,536.663635 379.294250,536.344421 379.642822,535.913574 
z"/>
<path fill="#0F9DE5" opacity="1.000000" stroke="none" 
	d="
M334.412384,621.799072 
	C334.557007,622.031311 334.452118,622.372620 334.090515,622.829529 
	C333.943481,622.599426 334.053192,622.253784 334.412384,621.799072 
z"/>
<path fill="#169DE0" opacity="1.000000" stroke="none" 
	d="
M358.596100,575.877930 
	C358.722015,576.082336 358.599854,576.399658 358.256348,576.854370 
	C358.139374,576.658081 358.243713,576.324524 358.596100,575.877930 
z"/>
<path fill="#169DE0" opacity="1.000000" stroke="none" 
	d="
M478.268982,348.825836 
	C478.431030,349.042023 478.375641,349.375092 478.058838,349.807343 
	C477.841919,349.574615 477.926666,349.253387 478.268982,348.825836 
z"/>
<path fill="#0F9DE5" opacity="1.000000" stroke="none" 
	d="
M629.912292,624.314819 
	C630.134827,624.291443 630.402222,624.526917 630.628052,625.040161 
	C630.376709,625.069885 630.166992,624.821716 629.912292,624.314819 
z"/>
<path fill="#169DE0" opacity="1.000000" stroke="none" 
	d="
M476.601898,351.884399 
	C476.724457,352.085236 476.601807,352.401031 476.258942,352.853943 
	C476.144714,352.660492 476.250702,352.329895 476.601898,351.884399 
z"/>
<path fill="#0F9DE5" opacity="1.000000" stroke="none" 
	d="
M517.101807,290.680237 
	C516.877319,290.704529 516.609619,290.474030 516.393982,289.969849 
	C516.650269,289.939270 516.854370,290.182343 517.101807,290.680237 
z"/>
<path fill="#0F9DE5" opacity="1.000000" stroke="none" 
	d="
M565.086914,380.688232 
	C564.861328,380.709290 564.597839,380.472900 564.385986,379.961914 
	C564.641418,379.935181 564.845276,380.182983 565.086914,380.688232 
z"/>
<path fill="#0F9DE5" opacity="1.000000" stroke="none" 
	d="
M575.894653,400.708191 
	C575.663757,400.736450 575.430359,400.494415 575.140930,400.001221 
	C575.354004,399.979340 575.623108,400.208588 575.894653,400.708191 
z"/>
<path fill="#169DE0" opacity="1.000000" stroke="none" 
	d="
M381.273010,532.827881 
	C381.437866,533.042053 381.384796,533.376404 381.073578,533.816589 
	C380.895325,533.597656 380.975189,533.272827 381.273010,532.827881 
z"/>
<path fill="#0F9DE5" opacity="1.000000" stroke="none" 
	d="
M581.088135,531.288696 
	C581.417542,531.153259 581.654297,531.378967 581.870300,531.937134 
	C581.652222,531.971497 581.367493,531.764954 581.088135,531.288696 
z"/>
<path fill="#169DE0" opacity="1.000000" stroke="none" 
	d="
M442.323090,416.824768 
	C442.480774,417.036194 442.418121,417.372284 442.103119,417.822083 
	C441.934753,417.607025 442.018768,417.278259 442.323090,416.824768 
z"/>
<path fill="#0F9DE5" opacity="1.000000" stroke="none" 
	d="
M525.864380,306.718079 
	C525.558289,306.840118 525.335083,306.621948 525.136841,306.086060 
	C525.339966,306.057129 525.601746,306.260345 525.864380,306.718079 
z"/>
<path fill="#0F9DE5" opacity="1.000000" stroke="none" 
	d="
M587.089783,422.684387 
	C586.868713,422.707916 586.601624,422.475067 586.379395,421.966492 
	C586.630737,421.936493 586.837280,422.182251 587.089783,422.684387 
z"/>
<path fill="#169DE0" opacity="1.000000" stroke="none" 
	d="
M399.698578,497.909485 
	C399.792328,498.080780 399.658264,498.386749 399.314331,498.836487 
	C399.226562,498.668274 399.348694,498.356262 399.698578,497.909485 
z"/>
<path fill="#169DE0" opacity="1.000000" stroke="none" 
	d="
M409.702087,478.975616 
	C409.898102,479.195068 409.765564,479.478729 409.331421,479.845123 
	C409.246643,479.679626 409.361237,479.383606 409.702087,478.975616 
z"/>
<path fill="#169DE0" opacity="1.000000" stroke="none" 
	d="
M485.636353,334.912842 
	C485.749817,335.106140 485.621826,335.411865 485.279388,335.852234 
	C485.174927,335.666290 485.284912,335.345764 485.636353,334.912842 
z"/>
<path fill="#FEFEFE" opacity="1.000000" stroke="none" 
	d="
M531.299255,435.656036 
	C538.659668,449.423462 545.554810,463.028656 553.113464,476.254608 
	C555.601379,480.607819 554.724670,482.238556 550.641418,483.938232 
	C535.379333,490.291260 520.130310,496.679718 504.960541,503.249207 
	C486.593903,511.203186 468.312775,519.354492 449.994080,527.419250 
	C448.843109,527.925903 447.687378,528.421814 445.364655,529.430237 
	C468.170868,486.569885 490.401978,444.790314 513.403931,401.562103 
	C519.697388,413.582367 525.394897,424.464233 531.299255,435.656036 
z"/>
<path fill="#169DE0" opacity="1.000000" stroke="none" 
	d="
M500.337311,311.947632 
	C500.816406,310.128510 501.635254,308.260681 502.726440,306.195984 
	C505.234833,309.150238 502.084747,310.181763 500.337311,311.947632 
z"/>
<path fill="#169DE0" opacity="1.000000" stroke="none" 
	d="
M503.233398,304.890015 
	C503.108337,304.675049 503.289673,304.413452 503.779663,304.107605 
	C503.899536,304.320099 503.716705,304.580109 503.233398,304.890015 
z"/>
</svg>