<?xml version="1.0" encoding="UTF-8"?>
<svg version="1.1" xmlns="http://www.w3.org/2000/svg" width="862" height="861">
<path d="M0 0 C284.46 0 568.92 0 862 0 C862 284.13 862 568.26 862 861 C577.54 861 293.08 861 0 861 C0 576.87 0 292.74 0 0 Z " fill="#FCFDFB" transform="translate(0,0)"/>
<path d="M0 0 C1.24554657 -0.00571014 2.49109314 -0.01142029 3.77438354 -0.01730347 C5.14231862 -0.01854869 6.51025382 -0.01967381 7.87818909 -0.02069092 C9.32942327 -0.02532441 10.78065624 -0.03034978 12.23188782 -0.03573608 C16.16890125 -0.04882565 20.10589763 -0.05530029 24.04292941 -0.05974674 C26.51324166 -0.06268781 28.98354938 -0.06679489 31.45385933 -0.07125092 C39.2125097 -0.08492729 46.97114955 -0.09458882 54.72981113 -0.09845281 C63.62801797 -0.10291038 72.52606942 -0.12034967 81.42422909 -0.1494534 C88.33505885 -0.1712553 95.24584555 -0.18116711 102.15670925 -0.18249393 C106.26710536 -0.18353041 110.37735549 -0.18918397 114.48771477 -0.20731354 C157.12502827 -0.38478163 157.12502827 -0.38478163 170.70069885 4.14044189 C170.70069885 4.80044189 170.70069885 5.46044189 170.70069885 6.14044189 C171.71132385 6.20231689 172.72194885 6.26419189 173.76319885 6.32794189 C186.74684806 7.9451224 199.18191269 14.27633258 210.70069885 20.14044189 C210.70069885 20.80044189 210.70069885 21.46044189 210.70069885 22.14044189 C211.43417542 22.42016846 212.16765198 22.69989502 212.9233551 22.98809814 C230.09909656 30.11446063 245.89049232 45.18592412 257.70069885 59.14044189 C256.01802123 62.70426681 253.97536756 65.98767381 251.88819885 69.32794189 C250.4892673 71.59687924 249.09544265 73.86892492 247.70069885 76.14044189 C247.23019104 76.89583252 246.75968323 77.65122314 246.2749176 78.42950439 C243.08128587 83.81810778 240.94142054 89.50055464 238.8427887 95.38189697 C237.38089758 99.4634689 235.69985608 103.28212445 233.70069885 107.14044189 C233.0154184 108.79954193 232.34178022 110.46376754 231.70069885 112.14044189 C228.2619275 108.94561084 225.6568221 105.36369488 223.01319885 101.51544189 C211.67050119 85.4368971 198.07103792 74.19966834 180.70069885 65.14044189 C179.60060486 64.53522705 179.60060486 64.53522705 178.47828674 63.91778564 C172.05468738 60.50110027 165.70274315 58.55058749 158.63819885 56.89044189 C157.6140387 56.63520752 156.58987854 56.37997314 155.53468323 56.11700439 C110.54495634 45.19298125 62.99609192 52.52304845 16.70069885 52.14044189 C17.03069885 147.18044189 17.36069885 242.22044189 17.70069885 340.14044189 C23.14569885 335.19044189 23.14569885 335.19044189 28.70069885 330.14044189 C31.25090227 328.19116275 33.72965029 326.3489004 36.38819885 324.57794189 C37.05826965 324.12596436 37.72834045 323.67398682 38.41871643 323.20831299 C65.72957406 305.05625445 96.10093408 296.1659378 128.88819885 295.76544189 C162.64635353 295.08402617 193.92241491 282.55645759 217.70069885 258.14044189 C218.36069885 257.15044189 219.02069885 256.16044189 219.70069885 255.14044189 C220.69069885 255.14044189 221.68069885 255.14044189 222.70069885 255.14044189 C222.83986034 263.26813554 222.9463991 271.39532968 223.01157188 279.52392101 C223.04285573 283.29862297 223.08527062 287.0725086 223.15333557 290.84674072 C223.21863946 294.4907715 223.25442708 298.13401839 223.26996231 301.77858925 C223.28102944 303.16733452 223.30264258 304.55603795 223.33507919 305.94444847 C223.57856447 316.80057523 223.57856447 316.80057523 221.39533997 320.13278198 C219.28837938 321.96853654 217.55061064 323.14044189 214.70069885 323.14044189 C214.70069885 324.13044189 214.70069885 325.12044189 214.70069885 326.14044189 C215.46382385 326.24356689 216.22694885 326.34669189 217.01319885 326.45294189 C220.01597554 327.22109407 220.8776175 327.68524006 222.70069885 330.14044189 C223.0614624 332.77903748 223.0614624 332.77903748 223.04127502 335.98883057 C223.04104843 337.18984909 223.04082184 338.39086761 223.04058838 339.62828064 C223.02510452 340.92522354 223.00962067 342.22216644 222.9936676 343.55841064 C222.98807119 344.89933295 222.9838013 346.24026139 222.98080444 347.58119202 C222.96935903 351.1076862 222.93989503 354.63380874 222.9066925 358.16015625 C222.87598474 361.75965345 222.86229763 365.35921079 222.84718323 368.95880127 C222.81502464 376.01950004 222.7638323 383.07994668 222.70069885 390.14044189 C221.57349291 389.1829417 220.44750537 388.22400701 219.32203674 387.26446533 C218.69487259 386.73061218 218.06770844 386.19675903 217.42153931 385.64672852 C215.53487437 383.99529235 213.83334939 382.23672633 212.13819885 380.39044189 C199.86777689 368.02581324 183.18481715 358.48075129 166.70069885 353.14044189 C165.42845835 352.60208863 164.15754205 352.0605914 162.88819885 351.51544189 C146.21693075 345.45014952 122.71201224 345.99134107 105.70069885 350.14044189 C105.07502014 350.28578369 104.44934143 350.43112549 103.80470276 350.58087158 C72.81579382 357.96514905 48.60352367 379.006844 32.0952301 405.64434814 C30.1838019 409.065644 28.94035277 412.42148013 27.70069885 416.14044189 C27.20569885 417.27481689 26.71069885 418.40919189 26.20069885 419.57794189 C19.04417783 436.57467932 16.33856646 454.24825354 16.43995667 472.5803833 C16.45075002 474.90144569 16.43995797 477.22174545 16.42726135 479.54278564 C16.4189388 486.94990452 16.535475 493.998613 18.70069885 501.14044189 C18.91822815 501.94820068 19.13575745 502.75595947 19.35987854 503.5881958 C27.74355571 534.16631437 46.12769752 562.12884599 73.73976135 578.61700439 C83.52763077 584.17608414 93.82942073 588.23761435 104.70069885 591.14044189 C105.4274884 591.33549316 106.15427795 591.53054443 106.90309143 591.73150635 C114.01994277 593.3997384 121.13793307 593.47902753 128.41285706 593.45611572 C130.49957442 593.45296248 132.58485938 593.47647115 134.67140198 593.50177002 C143.34659729 593.54191604 151.32304071 592.52506239 159.70069885 590.14044189 C160.48718811 589.91759521 161.27367737 589.69474854 162.08399963 589.46514893 C193.79003495 580.01994428 217.43517453 557.5256759 233.2124176 529.08575439 C236.71579858 522.4173046 239.04448979 515.40174577 241.09742737 508.17242432 C241.57517504 506.56324023 242.11197069 504.9716012 242.66912603 503.38815743 C245.79782132 493.53804109 245.99288067 483.3148368 245.9657135 473.06733704 C245.96929369 471.69665882 245.97374827 470.32598267 245.97899008 468.95530981 C245.99080175 465.2263627 245.99048591 461.49750417 245.98805499 457.76854289 C245.98763266 453.73232322 245.99876054 449.69613297 246.0085144 445.65992737 C246.02391841 438.67622286 246.03236793 431.69253844 246.03622437 424.70881844 C246.04199295 414.59648111 246.06061346 404.48419752 246.08266491 394.37188404 C246.11832953 377.94228778 246.14666567 361.51268847 246.16896057 345.08306885 C246.17029556 344.10120861 246.17163055 343.11934837 246.173006 342.10773479 C246.18243232 335.13947075 246.19159573 328.17120637 246.20069885 321.20294189 C246.21109596 313.24468969 246.22161332 305.28643767 246.23243713 297.32818604 C246.23376788 296.34783455 246.23509862 295.36748307 246.23646969 294.35742397 C246.25893099 277.98756963 246.28913897 261.61773828 246.32482958 245.24790758 C246.34643687 235.16593064 246.36109903 225.08398947 246.36666834 215.00199067 C246.37092879 208.09044908 246.3822013 201.17894159 246.39889228 194.26741893 C246.40825675 190.28592796 246.41442671 186.30450068 246.41182899 182.32299805 C246.4094964 178.6693791 246.41645571 175.01589336 246.43040782 171.3623014 C246.43544108 169.43368922 246.43080944 167.50505902 246.42568731 165.57644707 C246.48719582 153.96635001 247.96334903 142.70314339 251.07569885 131.51544189 C251.40767273 130.30054077 251.40767273 130.30054077 251.74635315 129.06109619 C252.38536389 126.75047208 253.03994292 124.44492692 253.70069885 122.14044189 C254.00878479 121.04602783 254.31687073 119.95161377 254.6342926 118.82403564 C256.9037602 111.41044148 260.2829844 104.68870237 263.8296051 97.82403564 C265.23406258 95.09805839 266.48862732 92.36023413 267.63819885 89.51544189 C283.12750507 53.82862624 320.05384508 24.79313783 355.31007385 10.40606689 C360.3281344 8.53296595 365.34464445 6.9523252 370.54737854 5.67315674 C372.09300431 5.29078084 373.63497227 4.89350307 375.17433167 4.4866333 C395.92382503 -0.92480444 424.10660095 -4.57501074 444.70069885 3.14044189 C447.325439 3.65514966 449.93976373 4.13363415 452.57569885 4.57794189 C458.23674991 5.59314169 463.44400522 6.80069787 468.70069885 9.14044189 C470.74117742 9.99744289 472.7829451 10.85137829 474.82569885 11.70294189 C475.79765198 12.11673096 476.7696051 12.53052002 477.77101135 12.95684814 C480.71430713 14.14593964 483.67972396 15.16781348 486.70069885 16.14044189 C486.70069885 16.80044189 486.70069885 17.46044189 486.70069885 18.14044189 C487.9536676 18.49815674 487.9536676 18.49815674 489.23194885 18.86309814 C493.24797102 20.34197117 496.59998739 22.29318848 500.20069885 24.57794189 C501.24737732 25.23947266 501.24737732 25.23947266 502.31520081 25.91436768 C534.65525379 46.71722491 559.14973067 76.6189805 572.32569885 112.76544189 C572.62476135 113.57239502 572.92382385 114.37934814 573.23194885 115.21075439 C575.64557912 121.78949884 577.67467643 128.24980779 578.70069885 135.20294189 C579.36022077 139.37818299 580.30701284 143.14520866 581.70069885 147.14044189 C582.60376765 152.36219902 582.89986899 157.44855121 582.97413635 162.73028564 C582.9925206 163.9514785 582.9925206 163.9514785 583.01127625 165.19734192 C583.0432105 167.82423889 583.06205617 170.45088843 583.07569885 173.07794189 C583.08125793 173.96884521 583.08681702 174.85974854 583.09254456 175.77764893 C583.13889771 190.48086876 581.74343003 203.93312946 577.70069885 218.14044189 C577.04069885 218.14044189 576.38069885 218.14044189 575.70069885 218.14044189 C575.54601135 219.56356689 575.54601135 219.56356689 575.38819885 221.01544189 C574.12758457 229.51607061 571.04928981 236.80877054 567.1030426 244.40216064 C565.60804903 247.22743292 565.60804903 247.22743292 564.26319885 250.64044189 C557.61809722 265.52546955 547.75823213 278.5114521 537.01954651 290.63360596 C535.94442002 291.86198076 534.9015392 293.11851789 533.8686676 294.38262939 C524.25659644 306.11178964 511.35518476 315.00657259 498.70069885 323.14044189 C497.60628479 323.84942627 496.51187073 324.55841064 495.3842926 325.28887939 C480.31974383 334.46175747 463.39031072 340.51355565 446.08828163 343.69761276 C444.58990244 343.97551976 443.09245276 344.25853844 441.59645653 344.54899979 C427.85884889 347.19443249 414.49164726 347.53683464 400.5327301 347.43341064 C398.27302333 347.42779916 396.01331284 347.42353643 393.75360107 347.42054749 C387.87320969 347.40922076 381.99304892 347.37986175 376.11274719 347.34643555 C369.02138788 347.31000177 361.92995044 347.29651543 354.83852386 347.27907562 C344.12575629 347.25021454 333.41349236 347.19264284 322.70069885 347.14044189 C322.70069885 329.98044189 322.70069885 312.82044189 322.70069885 295.14044189 C329.86659729 295.10305908 337.03249573 295.06567627 344.4155426 295.02716064 C348.98652906 294.9968437 353.55747832 294.96567143 358.12843323 294.93145752 C365.36531066 294.87736922 372.60211455 294.82625125 379.83912659 294.79400635 C385.68129381 294.76777661 391.52321047 294.72723868 397.36522102 294.67725563 C399.58121661 294.66071881 401.79725541 294.64912326 404.01330376 294.64282799 C419.9795633 294.59293346 435.96465089 294.24989803 450.88819885 287.89044189 C451.63029602 287.58598145 452.37239319 287.281521 453.13697815 286.96783447 C455.33681834 286.05054574 457.52025776 285.10281899 459.70069885 284.14044189 C460.34168518 283.86184326 460.98267151 283.58324463 461.64308167 283.29620361 C471.08633845 279.12389212 478.81695068 273.67481538 486.70069885 267.14044189 C487.45093323 266.54360596 488.2011676 265.94677002 488.97413635 265.33184814 C497.71659907 258.12709132 504.60250676 248.62214702 510.70069885 239.14044189 C511.23461243 238.31213867 511.23461243 238.31213867 511.77931213 237.46710205 C518.66685995 226.58753974 522.53540395 215.57213761 525.70069885 203.14044189 C526.04101135 201.92227783 526.38132385 200.70411377 526.73194885 199.44903564 C531.23553239 181.12195264 531.52369157 155.50748573 523.70069885 138.14044189 C522.93730096 135.88088625 522.20657084 133.60995928 521.51319885 131.32794189 C521.16901917 130.20774658 520.82483948 129.08755127 520.4702301 127.93341064 C519.70069885 125.14044189 519.70069885 125.14044189 519.70069885 123.14044189 C519.04069885 123.14044189 518.38069885 123.14044189 517.70069885 123.14044189 C517.45706604 122.13755127 517.21343323 121.13466064 516.9624176 120.10137939 C515.76108482 115.91303426 513.79912076 112.45110282 511.51319885 108.76544189 C510.90882996 107.77991333 510.90882996 107.77991333 510.29225159 106.7744751 C495.6170723 83.17264624 471.83332085 64.10227596 444.59669495 57.61212158 C442.93321687 57.19828696 441.29234392 56.69569823 439.6577301 56.17950439 C417.68531843 49.71528611 387.15907612 52.9286203 366.70069885 63.14044189 C365.84862854 63.56067627 364.99655823 63.98091064 364.1186676 64.41387939 C341.85410103 75.94431301 324.62410831 94.33296133 312.70069885 116.14044189 C312.37126282 116.7263208 312.04182678 117.31219971 311.70240784 117.91583252 C308.4326832 124.0280655 306.51199351 130.5252941 304.51319885 137.14044189 C304.15806213 138.27739502 303.80292542 139.41434814 303.43702698 140.58575439 C300.22152777 151.10476889 299.55180179 160.57881151 299.54920959 171.5320282 C299.54535463 172.88957898 299.54106626 174.2471286 299.53638411 175.60467678 C299.52479705 179.32034349 299.51927256 183.03599796 299.51474929 186.75167906 C299.50877986 190.7647088 299.49711713 194.77772244 299.4861145 198.79074097 C299.46779295 205.74070751 299.45293603 212.69067444 299.44033813 219.64065361 C299.42201515 229.69889385 299.39735086 239.75711106 299.37096423 249.81533302 C299.32819807 266.14806043 299.28907841 282.48079421 299.25294495 298.8135376 C299.25078214 299.79056505 299.24861934 300.76759251 299.246391 301.77422685 C299.23106401 308.70879832 299.21586707 315.64337008 299.20069885 322.57794189 C299.18337472 330.49761983 299.16598964 338.41729763 299.14845276 346.3369751 C299.14629389 347.31250623 299.14413502 348.28803735 299.14191073 349.29313003 C299.10578292 365.56448446 299.06582843 381.83582734 299.02314997 398.10716587 C298.99702341 408.1389131 298.97435705 418.17065686 298.95616639 428.20242167 C298.94348354 435.07658918 298.92735144 441.950743 298.90851724 448.82489639 C298.89777951 452.78951403 298.88865185 456.75411848 298.88382149 460.71874809 C298.87937068 464.35129966 298.87038851 467.98381138 298.85787827 471.61634386 C298.85240364 473.54590677 298.85174865 475.47548151 298.85129118 477.40505213 C298.78182919 493.97818121 298.78182919 493.97818121 296.70069885 498.14044189 C296.54287513 499.90865211 296.42430145 501.68044275 296.32569885 503.45294189 C295.82635407 510.20637549 294.37975009 516.59319809 292.70069885 523.14044189 C292.04069885 523.14044189 291.38069885 523.14044189 290.70069885 523.14044189 C290.59757385 523.92419189 290.49444885 524.70794189 290.38819885 525.51544189 C288.4725901 535.61592442 284.46103292 544.13673699 279.72511292 553.17706299 C278.79213379 554.96519885 277.88186657 556.76513853 276.97413635 558.56622314 C256.93061661 597.46585032 221.41576959 625.9703 180.27638245 639.96514893 C175.80951603 641.37784309 171.31037569 642.58016205 166.75050354 643.65264893 C164.86322473 644.10176554 162.98811656 644.60123473 161.11476135 645.10528564 C136.10561197 650.99138696 107.8857431 647.69893265 83.70069885 640.14044189 C83.00363831 639.92935791 82.30657776 639.71827393 81.58839417 639.50079346 C64.48685774 634.25804563 48.07395249 625.78488765 33.70069885 615.14044189 C32.87698792 614.53844971 32.05327698 613.93645752 31.2046051 613.31622314 C9.10292065 596.19330475 -6.07320777 575.41385224 -19.29930115 551.14044189 C-20.24676208 549.43501221 -20.24676208 549.43501221 -21.21336365 547.69512939 C-25.68759656 539.27439361 -30.29930115 528.7900533 -30.29930115 519.14044189 C-30.95930115 519.14044189 -31.61930115 519.14044189 -32.29930115 519.14044189 C-32.78453265 516.53728167 -33.26253368 513.9331041 -33.73680115 511.32794189 C-33.87150818 510.60928955 -34.00621521 509.89063721 -34.14500427 509.15020752 C-36.36721459 496.84675039 -36.44841503 484.64515903 -36.44647217 472.18704224 C-36.44977596 470.26180514 -36.45350261 468.33656874 -36.45761365 466.4113332 C-36.46758177 461.14042712 -36.47134198 455.86953243 -36.47400296 450.59861827 C-36.47792106 444.9066932 -36.48749776 439.21477702 -36.49621582 433.52285767 C-36.51592964 419.79350949 -36.52603636 406.06416063 -36.53494361 392.33480185 C-36.53933164 385.86667533 -36.54469682 379.39854962 -36.54993248 372.93042374 C-36.56693363 351.42919746 -36.58145511 329.92797246 -36.58868122 308.42674065 C-36.58915597 307.03809776 -36.58963186 305.64945488 -36.59010888 304.26081199 C-36.59034526 303.57220165 -36.59058164 302.8835913 -36.59082517 302.17411398 C-36.59202632 298.68551364 -36.59324179 295.19691331 -36.59446716 291.70831299 C-36.59470731 291.01600487 -36.59494746 290.32369676 -36.59519489 289.61040961 C-36.60309452 267.14496274 -36.62654608 244.67956854 -36.65902311 222.21414468 C-36.69332085 198.44583334 -36.7130308 174.67755928 -36.71632546 150.90922177 C-36.71849174 137.95847915 -36.72725871 125.00781412 -36.75278664 112.05709457 C-36.77446265 101.03543266 -36.782559 90.01386722 -36.77281985 78.99218641 C-36.76826728 73.36877962 -36.77021752 67.74557201 -36.7895813 62.12219238 C-36.80715555 56.97416982 -36.80626188 51.82649263 -36.79068401 46.67846669 C-36.78829933 44.81659774 -36.79267588 42.95470522 -36.80451266 41.09287237 C-36.88020645 28.40043981 -35.9776061 19.4261743 -27.01805115 9.85919189 C-19.30408134 2.14522209 -10.76392796 0.02969891 0 0 Z " fill="#09426B" transform="translate(174.29930114746094,127.85955810546875)"/>
<path d="M0 0 C0.33 0 0.66 0 1 0 C1.13005915 40.75247438 1.25760857 81.50495599 1.38218227 122.25744751 C1.39718694 127.16536545 1.41221061 132.07328333 1.42724609 136.98120117 C1.43023671 137.95750919 1.43322732 138.9338172 1.43630856 139.93971031 C1.4778107 153.47566672 1.52031972 167.01161961 1.56369197 180.54757015 C1.63880997 203.99134111 1.71179589 227.43511778 1.78125 250.87890625 C1.78399162 251.80279902 1.78673324 252.72669178 1.78955793 253.6785813 C2.01495929 329.78581278 2.06127093 405.89248919 2 482 C1.67 482 1.34 482 1 482 C-1.46560106 472.01915569 -1.27759441 462.13228531 -1.24723816 451.93029785 C-1.24882798 449.99253487 -1.25129328 448.05477244 -1.25455457 446.11701155 C-1.26094815 440.81169248 -1.25491541 435.50645011 -1.24679029 430.20113611 C-1.24019789 424.47251809 -1.24516503 418.74390843 -1.24867249 413.01528931 C-1.25370816 401.80287166 -1.24808137 390.59048356 -1.23882218 379.37806958 C-1.22843142 366.32600376 -1.22850853 353.27394431 -1.22899476 340.22187513 C-1.22951024 316.2393928 -1.21948007 292.25692567 -1.20449232 268.2744486 C-1.19085628 246.37404422 -1.18463161 224.47365077 -1.18530273 202.57324219 C-1.18534315 201.16584041 -1.18538351 199.75843863 -1.18542381 198.35103685 C-1.18544416 197.65524626 -1.18546452 196.95945567 -1.18548548 196.24258052 C-1.18558628 192.74016324 -1.18567686 189.23774596 -1.18575573 185.73532867 C-1.18577244 185.04437223 -1.18578916 184.35341578 -1.18580638 183.64152126 C-1.18624955 161.41720902 -1.17913324 139.19289909 -1.17139288 116.96858838 C-1.16837268 107.86328015 -1.16731288 98.75797286 -1.16686058 89.65266418 C-1.1661797 78.56790422 -1.16173226 67.48315294 -1.15252777 56.39839667 C-1.1478996 50.7393509 -1.14486804 45.08031626 -1.14612198 39.42126846 C-1.14721279 34.24775804 -1.14372464 29.0742723 -1.13647345 23.90076703 C-1.13465244 22.02285924 -1.13453724 20.14494892 -1.13624074 18.26704103 C-1.13829078 15.7271131 -1.13426831 13.18726725 -1.12863445 10.6473465 C-1.13068977 9.90753819 -1.13274509 9.16772989 -1.13486269 8.40550315 C-1.12226327 5.3249215 -0.98236916 2.94710747 0 0 Z " fill="#103855" transform="translate(140,151)"/>
<path d="M0 0 C0.33 0 0.66 0 1 0 C1.02333542 18.74072425 1.04098235 37.48144557 1.05181217 56.22218132 C1.05697376 64.92335368 1.06401385 73.62451702 1.07543945 82.32568359 C1.08539047 89.90748161 1.09185443 97.4892731 1.09408849 105.07107747 C1.09539489 109.08750219 1.09847626 113.10390824 1.10573006 117.120327 C1.11249685 120.89755057 1.11461561 124.67474771 1.11310768 128.45197678 C1.11338371 129.84116255 1.11538494 131.23034917 1.11920547 132.61952972 C1.12415291 134.51057807 1.12239515 136.40164048 1.12025452 138.29269409 C1.12117631 139.35275602 1.1220981 140.41281796 1.12304783 141.50500298 C1 144 1 144 0 146 C-0.27632858 149.04838667 -0.44658298 152.09654869 -0.62109375 155.15234375 C-1 158 -1 158 -3 161 C-2.86181468 157.52048477 -2.71317399 154.04149505 -2.5625 150.5625 C-2.52318359 149.56927734 -2.48386719 148.57605469 -2.44335938 147.55273438 C-2.40146484 146.60849609 -2.35957031 145.66425781 -2.31640625 144.69140625 C-2.27974854 143.81685791 -2.24309082 142.94230957 -2.20532227 142.04125977 C-2 140 -2 140 -1 139 C-0.90587195 137.24773393 -0.88257046 135.49163501 -0.88647461 133.73684692 C-0.8865451 132.59548279 -0.8866156 131.45411865 -0.88668823 130.27816772 C-0.89443771 128.38307968 -0.89443771 128.38307968 -0.90234375 126.44970703 C-0.90426157 125.11454321 -0.90572601 123.77937866 -0.9067688 122.44421387 C-0.90993748 119.56256923 -0.9162176 116.68095366 -0.92483521 113.79932022 C-0.93831648 109.24494898 -0.94424319 104.69058754 -0.94897461 100.13619995 C-0.96104066 89.64319466 -0.98307901 79.15021461 -1.00520325 68.65722656 C-1.02536683 59.04817945 -1.04344384 49.43914085 -1.05341816 39.83007705 C-1.05840871 35.30071276 -1.06828106 30.77139296 -1.08184814 26.24204659 C-1.08929769 23.42524051 -1.09262146 20.60844059 -1.0948143 17.79162598 C-1.09758511 15.85870594 -1.10538223 13.92579516 -1.11331177 11.9928894 C-1.11338226 10.84588562 -1.11345276 9.69888184 -1.11352539 8.51712036 C-1.115746 7.51827379 -1.11796661 6.51942722 -1.12025452 5.49031258 C-1 3 -1 3 0 0 Z " fill="#12446B" transform="translate(471,480)"/>
<path d="M0 0 C0.33 0 0.66 0 1 0 C2.09601138 51.55306242 2.09601138 51.55306242 2.125 69.125 C2.12951172 70.24036133 2.13402344 71.35572266 2.13867188 72.50488281 C2.13673828 73.49584961 2.13480469 74.48681641 2.1328125 75.5078125 C2.13168457 76.33941895 2.13055664 77.17102539 2.12939453 78.02783203 C2 80 2 80 1 82 C0.72367142 85.04838667 0.55341702 88.09654869 0.37890625 91.15234375 C0 94 0 94 -2 97 C-1.86181468 93.52048477 -1.71317399 90.04149505 -1.5625 86.5625 C-1.52318359 85.56927734 -1.48386719 84.57605469 -1.44335938 83.55273438 C-1.38051758 82.13637695 -1.38051758 82.13637695 -1.31640625 80.69140625 C-1.27974854 79.81685791 -1.24309082 78.94230957 -1.20532227 78.04125977 C-1 76 -1 76 0 75 C0.09492722 72.65746218 0.12559791 70.34453896 0.11352539 68.00170898 C0.11367142 67.27004517 0.11381744 66.53838135 0.1139679 65.7845459 C0.11326867 63.35503216 0.10547585 60.92559417 0.09765625 58.49609375 C0.0957921 56.81600486 0.09436819 55.13591543 0.09336853 53.45582581 C0.08954307 49.02526357 0.07971256 44.5947339 0.06866455 40.16418457 C0.05845103 35.64657024 0.05387104 31.12895066 0.04882812 26.61132812 C0.03809031 17.74087107 0.02101356 8.87043824 0 0 Z " fill="#114771" transform="translate(470,544)"/>
<path d="M0 0 C2 3 2 3 2 6 C2.99 6.33 3.98 6.66 5 7 C5.33 9.97 5.66 12.94 6 16 C6.33 16 6.66 16 7 16 C7.80984194 20.95152495 8.1178734 25.64952275 8.09765625 30.68359375 C8.0962413 31.38396255 8.09482635 32.08433136 8.09336853 32.80592346 C8.08782477 35.01649466 8.07528326 37.22696004 8.0625 39.4375 C8.05747771 40.94726415 8.05291609 42.45702991 8.04882812 43.96679688 C8.03787387 47.64456493 8.0206489 51.32227212 8 55 C7.34 54.67 6.68 54.34 6 54 C5.98018066 53.30140869 5.96036133 52.60281738 5.93994141 51.88305664 C6.39019568 29.11605244 6.39019568 29.11605244 1.4296875 7.29296875 C0 4 0 4 0 0 Z " fill="#2D5270" transform="translate(698,262)"/>
<path d="M0 0 C0.495 0.99 0.495 0.99 1 2 C0.01193359 1.99476318 -0.97613281 1.98952637 -1.99414062 1.98413086 C-5.6917224 1.96590679 -9.38930028 1.9545049 -13.08691406 1.94506836 C-14.68132192 1.94006769 -16.27572525 1.93326499 -17.87011719 1.92456055 C-20.17383954 1.9123067 -22.47750078 1.9067289 -24.78125 1.90234375 C-25.48366821 1.89718246 -26.18608643 1.89202118 -26.90979004 1.88670349 C-30.45833978 1.88630939 -33.81635471 2.08761019 -37.32617188 2.63110352 C-41 3 -41 3 -44 1 C-29.9119635 -1.12363404 -14.07562493 -3.05741033 0 0 Z " fill="#0D3859" transform="translate(608,179)"/>
<path d="M0 0 C0.66 0 1.32 0 2 0 C0.4893322 3.62888679 -1.63597476 5.7194323 -4.5 8.375 C-9.74529299 13.48306149 -13.83844741 19.06898375 -17.96875 25.09375 C-20 28 -20 28 -22 30 C-21.52583422 25.02125936 -20.0900669 21.93281242 -17 18 C-16.34 18 -15.68 18 -15 18 C-14.6596875 17.195625 -14.6596875 17.195625 -14.3125 16.375 C-12.54429911 13.17539839 -10.46329797 10.70962777 -8 8 C-7.34 8 -6.68 8 -6 8 C-5.731875 7.360625 -5.46375 6.72125 -5.1875 6.0625 C-4 4 -4 4 -1 3 C-0.67 2.01 -0.34 1.02 0 0 Z " fill="#163F5F" transform="translate(513,206)"/>
<path d="M0 0 C0.33 0 0.66 0 1 0 C1 19.8 1 39.6 1 60 C-0.98 58.35 -2.96 56.7 -5 55 C-3.515 54.505 -3.515 54.505 -2 54 C-2 54.66 -2 55.32 -2 56 C-1.34 56 -0.68 56 0 56 C0 37.52 0 19.04 0 0 Z " fill="#274B66" transform="translate(396,458)"/>
<path d="M0 0 C-6.31490685 4.28129278 -12.74687038 8.0235339 -19.5625 11.4375 C-20.26503906 11.79134766 -20.96757813 12.14519531 -21.69140625 12.50976562 C-26.7409112 15 -26.7409112 15 -29 15 C-29 14.34 -29 13.68 -29 13 C-26.46080994 11.70326398 -23.91885762 10.41252163 -21.375 9.125 C-20.30572266 8.57779297 -20.30572266 8.57779297 -19.21484375 8.01953125 C-15.21248163 5.99999073 -11.31082927 4.2918889 -7 3 C-7 2.34 -7 1.68 -7 1 C-3.375 -1.125 -3.375 -1.125 0 0 Z " fill="#1A4362" transform="translate(679,447)"/>
<path d="M0 0 C-2.31 0.33 -4.62 0.66 -7 1 C-7 1.66 -7 2.32 -7 3 C-17.23 2.67 -27.46 2.34 -38 2 C-38 1.67 -38 1.34 -38 1 C-37.18321777 0.97494385 -36.36643555 0.9498877 -35.52490234 0.92407227 C-31.80812451 0.80770857 -28.09157498 0.68516528 -24.375 0.5625 C-23.08980469 0.52318359 -21.80460937 0.48386719 -20.48046875 0.44335938 C-19.23652344 0.40146484 -17.99257813 0.35957031 -16.7109375 0.31640625 C-15.56931152 0.27974854 -14.42768555 0.24309082 -13.25146484 0.20532227 C-9.98390955 0.05474336 -9.98390955 0.05474336 -6.72900391 -0.54711914 C-4.050641 -0.99159608 -2.5333346 -0.87692352 0 0 Z " fill="#415B70" transform="translate(331,721)"/>
<path d="M0 0 C0.66 0.33 1.32 0.66 2 1 C-3.94 6.94 -9.88 12.88 -16 19 C-16.66 18.67 -17.32 18.34 -18 18 C-12.37361021 11.50903494 -6.55902307 5.55113536 0 0 Z " fill="#CCDAE1" transform="translate(236,498)"/>
<path d="M0 0 C0.33 0 0.66 0 1 0 C1.02689449 2.95839355 1.04678741 5.91654427 1.0625 8.875 C1.07087891 9.71675781 1.07925781 10.55851563 1.08789062 11.42578125 C1.09111328 12.23144531 1.09433594 13.03710938 1.09765625 13.8671875 C1.10289307 14.61081543 1.10812988 15.35444336 1.11352539 16.12060547 C1 18 1 18 0 20 C-0.27632858 23.04838667 -0.44658298 26.09654869 -0.62109375 29.15234375 C-1 32 -1 32 -3 35 C-2.86181468 31.52048477 -2.71317399 28.04149505 -2.5625 24.5625 C-2.52318359 23.56927734 -2.48386719 22.57605469 -2.44335938 21.55273438 C-2.40146484 20.60849609 -2.35957031 19.66425781 -2.31640625 18.69140625 C-2.26141968 17.37958374 -2.26141968 17.37958374 -2.20532227 16.04125977 C-2 14 -2 14 -1 13 C-0.76518307 10.81707226 -0.58636677 8.62796826 -0.4375 6.4375 C-0.35371094 5.23996094 -0.26992188 4.04242187 -0.18359375 2.80859375 C-0.12300781 1.88175781 -0.06242187 0.95492187 0 0 Z " fill="#436882" transform="translate(471,606)"/>
<path d="M0 0 C1.13732426 3.40401948 0.83989957 5.77456664 0.0625 9.25 C-0.13214844 10.14203125 -0.32679688 11.0340625 -0.52734375 11.953125 C-0.68332031 12.62859375 -0.83929687 13.3040625 -1 14 C-1.66 14 -2.32 14 -3 14 C-3.12375 15.0725 -3.2475 16.145 -3.375 17.25 C-3.89643936 20.37863615 -4.40088254 22.33480424 -6 25 C-6.22577402 19.5814234 -5.46670113 15.22512279 -4 10 C-3.67 10 -3.34 10 -3 10 C-2.690625 8.906875 -2.38125 7.81375 -2.0625 6.6875 C-1.41662103 4.44592006 -0.7376883 2.2130649 0 0 Z " fill="#43647E" transform="translate(753,332)"/>
<path d="M0 0 C-1.65863505 4.32504836 -4.871041 7.09418825 -8.125 10.25 C-8.68832031 10.80429688 -9.25164062 11.35859375 -9.83203125 11.9296875 C-11.21686028 13.29104485 -12.60783204 14.64614859 -14 16 C-14.66 15.67 -15.32 15.34 -16 15 C-2.63106796 0 -2.63106796 0 0 0 Z " fill="#CAD9E0" transform="translate(516,208)"/>
<path d="M0 0 C2 3 2 3 2 6 C2.99 6.33 3.98 6.66 5 7 C5.33 13.93 5.66 20.86 6 28 C5.67 28 5.34 28 5 28 C4.89042969 26.85402344 4.78085937 25.70804687 4.66796875 24.52734375 C4.50839726 22.99733473 4.34820805 21.46739005 4.1875 19.9375 C4.11724609 19.18533203 4.04699219 18.43316406 3.97460938 17.65820312 C3.56621567 13.88464532 3.00201368 10.66171222 1.42578125 7.19140625 C0 4 0 4 0 0 Z " fill="#688296" transform="translate(698,262)"/>
<path d="M0 0 C-6.3085731 3.40603712 -13.81103584 5.58288899 -21 5 C-17.87195054 2.9146337 -15.19849808 1.94506175 -11.625 0.8125 C-10.50351562 0.44769531 -9.38203125 0.08289063 -8.2265625 -0.29296875 C-4.99600266 -1.00087593 -3.13575619 -0.92193581 0 0 Z " fill="#0E3858" transform="translate(565,182)"/>
<path d="M0 0 C-2.26827645 1.48321908 -4.53941903 2.96167699 -6.8125 4.4375 C-7.77639648 5.06881836 -7.77639648 5.06881836 -8.75976562 5.71289062 C-11.48390104 7.47722704 -13.90752171 8.9691739 -17 10 C-16.34 8.68 -15.68 7.36 -15 6 C-14.34 6 -13.68 6 -13 6 C-13 5.34 -13 4.68 -13 4 C-10.35261084 2.5393715 -9.10551666 2 -6 2 C-6 1.34 -6 0.68 -6 0 C-3 -1 -3 -1 0 0 Z " fill="#1F4663" transform="translate(253,488)"/>
<path d="M0 0 C0.66 0.33 1.32 0.66 2 1 C-0.55398281 5.16204606 -2.95054353 8.22931926 -7 11 C-7.66 11 -8.32 11 -9 11 C-7.59155282 7.78475695 -5.89655214 5.67816132 -3.375 3.25 C-2.74335938 2.63640625 -2.11171875 2.0228125 -1.4609375 1.390625 C-0.73777344 0.70226562 -0.73777344 0.70226562 0 0 Z " fill="#2F5571" transform="translate(152,133)"/>
<path d="M0 0 C0.66 0 1.32 0 2 0 C1.37954537 4.23322844 -0.10523559 7.52290295 -2.0625 11.3125 C-2.61035156 12.38113281 -3.15820312 13.44976563 -3.72265625 14.55078125 C-4.14417969 15.35902344 -4.56570313 16.16726563 -5 17 C-6.03089037 14.32341115 -6.09652951 13.24838692 -5.0390625 10.52734375 C-4.57242187 9.67269531 -4.10578125 8.81804688 -3.625 7.9375 C-2.18619055 5.26485117 -0.9621546 2.88646379 0 0 Z " fill="#1B4766" transform="translate(456,670)"/>
<path d="M0 0 C-4.54428546 3.02952364 -9.539338 5.25108796 -15.0625 4.6875 C-15.701875 4.460625 -16.34125 4.23375 -17 4 C-14.04925888 2.43220483 -11.12880766 1.29925425 -7.9375 0.3125 C-7.08027344 0.04050781 -6.22304688 -0.23148437 -5.33984375 -0.51171875 C-3 -1 -3 -1 0 0 Z " fill="#214967" transform="translate(644,464)"/>
<path d="M0 0 C1.93681161 -0.08107583 3.8745934 -0.13922475 5.8125 -0.1875 C6.89144531 -0.22230469 7.97039063 -0.25710937 9.08203125 -0.29296875 C12 0 12 0 13.88671875 1.51171875 C14.25410156 2.00285156 14.62148438 2.49398437 15 3 C11.34142468 4.31534494 8.91973519 3.65468309 5.25 2.5625 C4.26515625 2.27503906 3.2803125 1.98757812 2.265625 1.69140625 C1.51796875 1.46324219 0.7703125 1.23507813 0 1 C0 0.67 0 0.34 0 0 Z " fill="#4B687E" transform="translate(610,182)"/>
<path d="M0 0 C0.66 0.66 1.32 1.32 2 2 C0.02 5.63 -1.96 9.26 -4 13 C-4.33 13 -4.66 13 -5 13 C-4.53199289 8.94393835 -4.12046792 5.53411321 -2 2 C-1.34 2 -0.68 2 0 2 C0 1.34 0 0.68 0 0 Z " fill="#184262" transform="translate(489,235)"/>
<path d="M0 0 C0.66 0.99 1.32 1.98 2 3 C0.56163249 2.88541307 -0.87570966 2.75790884 -2.3125 2.625 C-3.11300781 2.55539063 -3.91351563 2.48578125 -4.73828125 2.4140625 C-7 2 -7 2 -10 0 C-6.33461636 -0.94252722 -3.63170285 -1.17784957 0 0 Z " fill="#44647C" transform="translate(336,182)"/>
<path d="M0 0 C0.33 0.99 0.66 1.98 1 3 C-0.21484375 5.26171875 -0.21484375 5.26171875 -1.9375 7.6875 C-2.50339844 8.49574219 -3.06929687 9.30398438 -3.65234375 10.13671875 C-4.09707031 10.75160156 -4.54179687 11.36648438 -5 12 C-5.97918775 8.92443042 -6.1498998 8.31407577 -4.6875 5.25 C-4.130625 4.5075 -3.57375 3.765 -3 3 C-2.34 3 -1.68 3 -1 3 C-0.67 2.01 -0.34 1.02 0 0 Z " fill="#1E4766" transform="translate(214,518)"/>
<path d="M0 0 C0.99 0.33 1.98 0.66 3 1 C4.21631654 4.45689963 5 7.32831864 5 11 C3 10 3 10 2.1484375 7.71484375 C1.89320313 6.79832031 1.63796875 5.88179687 1.375 4.9375 C1.11460937 4.01839844 0.85421875 3.09929688 0.5859375 2.15234375 C0.39257812 1.44207031 0.19921875 0.73179687 0 0 Z " fill="#315977" transform="translate(148,662)"/>
<path d="M0 0 C-0.99 1.485 -0.99 1.485 -2 3 C-4.6015625 3.51171875 -4.6015625 3.51171875 -7.625 3.6875 C-9.12933594 3.78611328 -9.12933594 3.78611328 -10.6640625 3.88671875 C-11.82035156 3.94279297 -11.82035156 3.94279297 -13 4 C-10.56272708 2.37515139 -8.62713877 1.34310925 -5.9375 0.3125 C-5.24527344 0.04050781 -4.55304688 -0.23148437 -3.83984375 -0.51171875 C-2 -1 -2 -1 0 0 Z " fill="#496A83" transform="translate(351,416)"/>
<path d="M0 0 C1.43739513 -0.02712066 2.87493863 -0.04645067 4.3125 -0.0625 C5.51326172 -0.07990234 5.51326172 -0.07990234 6.73828125 -0.09765625 C9 0 9 0 12 1 C12 1.66 12 2.32 12 3 C10.56163249 2.88541307 9.12429034 2.75790884 7.6875 2.625 C6.88699219 2.55539062 6.08648437 2.48578125 5.26171875 2.4140625 C3 2 3 2 0 0 Z " fill="#254F6D" transform="translate(316,474)"/>
<path d="M0 0 C3.40312738 1.05875074 6.01353231 2.00902154 9 4 C9 4.66 9 5.32 9 6 C2.42696629 4.1011236 2.42696629 4.1011236 0 1 C0 0.67 0 0.34 0 0 Z " fill="#2F5774" transform="translate(354,484)"/>
<path d="M0 0 C1.32 0 2.64 0 4 0 C4 0.66 4 1.32 4 2 C4.99 2 5.98 2 7 2 C7.66 3.65 8.32 5.3 9 7 C7.4972763 6.02501855 5.99788037 5.04490611 4.5 4.0625 C3.6646875 3.51722656 2.829375 2.97195312 1.96875 2.41015625 C1.3190625 1.94480469 0.669375 1.47945312 0 1 C0 0.67 0 0.34 0 0 Z " fill="#29506F" transform="translate(369,200)"/>
<path d="M0 0 C5.4611399 0.35233161 5.4611399 0.35233161 8 1 C9.5 3.0625 9.5 3.0625 10 5 C5 3 5 3 0 1 C0 0.67 0 0.34 0 0 Z " fill="#375A74" transform="translate(345,187)"/>
<path d="M0 0 C0.99 0 1.98 0 3 0 C2.01 2.97 1.02 5.94 0 9 C-0.33 9 -0.66 9 -1 9 C-0.67 6.03 -0.34 3.06 0 0 Z " fill="#3B617D" transform="translate(413,215)"/>
<path d="M0 0 C4.455 0.99 4.455 0.99 9 2 C8.67 2.66 8.34 3.32 8 4 C5.69 3.67 3.38 3.34 1 3 C0.67 2.01 0.34 1.02 0 0 Z " fill="#274B69" transform="translate(337,183)"/>
<path d="M0 0 C-2.96687001 1.64826111 -5.65626525 2.44271087 -9 3 C-9 2.01 -9 1.02 -9 0 C-5.67465243 -1.10844919 -3.37817425 -0.84454356 0 0 Z " fill="#1C4260" transform="translate(565,182)"/>
<path d="M0 0 C0.66 0.33 1.32 0.66 2 1 C1.45276317 4.37462715 0.9451 6.08235 -1 9 C-2.0326802 6.21176345 -2.04509293 5.1322726 -1.0625 2.25 C-0.711875 1.5075 -0.36125 0.765 0 0 Z " fill="#164262" transform="translate(463,651)"/>
<path d="M0 0 C0.66 0.33 1.32 0.66 2 1 C0.02 3.31 -1.96 5.62 -4 8 C-4.33 7.01 -4.66 6.02 -5 5 C-4.01 4.67 -3.02 4.34 -2 4 C-0.79117904 1.99983534 -0.79117904 1.99983534 0 0 Z " fill="#254C6A" transform="translate(708,419)"/>
<path d="M0 0 C0.99 0 1.98 0 3 0 C3 0.66 3 1.32 3 2 C3.9590625 2.1546875 3.9590625 2.1546875 4.9375 2.3125 C5.618125 2.539375 6.29875 2.76625 7 3 C7.33 3.99 7.66 4.98 8 6 C4.64532525 4.82133049 2.28780716 3.76945078 0 1 C0 0.67 0 0.34 0 0 Z " fill="#29506E" transform="translate(358,192)"/>
<path d="M0 0 C0.33 0.66 0.66 1.32 1 2 C0.06421005 4.35981813 -0.93347808 6.69631264 -2 9 C-2.66 9 -3.32 9 -4 9 C-2.94124926 5.59687262 -1.99097846 2.98646769 0 0 Z " fill="#4E7189" transform="translate(406,659)"/>
<path d="M0 0 C-1.39332574 3.36720387 -2.9789286 4.9859524 -6 7 C-5.37162381 3.35541809 -4.14650034 0 0 0 Z " fill="#174060" transform="translate(227,505)"/>
<path d="M0 0 C0.6875 1.8125 0.6875 1.8125 1 4 C-0.4375 5.75 -0.4375 5.75 -2 7 C-2.99 6.67 -3.98 6.34 -5 6 C-3.35 4.02 -1.7 2.04 0 0 Z " fill="#3F617C" transform="translate(677,378)"/>
<path d="M0 0 C0 3.57575896 -1.08840607 5.05295935 -3 8 C-3.75 6.25 -3.75 6.25 -4 4 C-2.0625 1.75 -2.0625 1.75 0 0 Z " fill="#335975" transform="translate(690,361)"/>
<path d="M0 0 C3 1 3 1 5 4 C4.67 4.99 4.34 5.98 4 7 C2 5.1875 2 5.1875 0 3 C0 2.01 0 1.02 0 0 Z " fill="#274D6A" transform="translate(670,213)"/>
</svg>
